<svg width="25" height="23" viewBox="0 0 25 23" fill="none" xmlns="http://www.w3.org/2000/svg">
<path d="M3.52451 17.2549C2.41995 17.2549 1.52472 16.3647 1.52472 15.2601C1.52472 12.1707 1.52472 6.393 1.52472 3.30346C1.52472 2.19889 2.41812 1.30869 3.52269 1.30869C6.82463 1.30869 13.1961 1.30869 16.4981 1.30869C17.6026 1.30869 18.496 2.20381 18.496 3.30838C18.496 3.83648 18.496 4.4428 18.496 5.10042C18.496 5.6323 18.9726 6.02677 19.5044 6.02677V6.02677V6.02677C19.7847 6.02677 20.0219 5.83206 20.0219 5.55181V2C20.0219 0.89543 19.1265 0 18.0219 0H2C0.895432 0 0 0.89543 0 2V16.5636C0 17.6682 0.895431 18.5636 2 18.5636H11.9375C12.2989 18.5636 12.5919 18.2706 12.5919 17.9092V17.9092C12.5919 17.5479 12.2995 17.2549 11.9381 17.2549C8.94298 17.2549 5.61768 17.2549 3.52451 17.2549Z" fill="#222222"/>
<path d="M3.69269 9.28177C3.69269 9.66037 3.99961 9.96729 4.37821 9.96729H13.5692C13.8401 9.96729 14.0698 9.77527 14.1573 9.51883V9.51883C14.3019 9.09505 14.0224 8.59624 13.5746 8.59624H4.37821C3.99961 8.59624 3.69269 8.90316 3.69269 9.28177V9.28177Z" fill="#222222"/>
<path d="M15.6402 4.30954H4.37821C3.99961 4.30954 3.69269 4.61646 3.69269 4.99506C3.69269 5.37366 3.99961 5.68058 4.37821 5.68058H15.6402C16.0188 5.68058 16.3257 5.37366 16.3257 4.99506C16.3257 4.61646 16.0188 4.30954 15.6402 4.30954Z" fill="#222222"/>
<path d="M15.6402 4.30954H4.37821C3.99961 4.30954 3.69269 4.61646 3.69269 4.99506C3.69269 5.37366 3.99961 5.68058 4.37821 5.68058H15.6402C16.0188 5.68058 16.3257 5.37366 16.3257 4.99506C16.3257 4.61646 16.0188 4.30954 15.6402 4.30954Z" fill="#222222"/>
<path d="M3.69269 13.5695C3.69269 13.9481 3.99961 14.255 4.37821 14.255H14.2962C14.3736 14.255 14.4481 14.2367 14.5176 14.2026V14.2026C14.8564 14.0366 14.996 13.5516 14.7807 13.2417C14.7585 13.2098 14.7367 13.1778 14.7153 13.1455C14.6091 12.9859 14.4332 12.884 14.2416 12.884H4.37821C3.99961 12.884 3.69269 13.1909 3.69269 13.5695V13.5695Z" fill="#222222"/>
<path d="M19.5056 14.3922C21.8078 14.3922 23.6626 12.7926 23.6626 10.8196C23.6626 8.84471 21.8078 7.24603 19.5056 7.24603C17.2131 7.24603 15.3571 8.84471 15.3571 10.8196C15.3571 12.7926 17.2131 14.3922 19.5056 14.3922Z" fill="#222222"/>
<path d="M16.1733 23L22.8356 23C24.0254 23 25 22.0624 25 20.9076L25 15.1573C25 15.0939 24.9661 15.0378 24.9613 14.9723L14.0538 14.9723C14.0489 15.0367 14.0151 15.0939 14.0151 15.1573L14.0151 20.9076C14.0102 22.0593 14.9824 23 16.1733 23Z" fill="#222222"/>
</svg>
