<svg width="25" height="23" viewBox="0 0 25 23" fill="none" xmlns="http://www.w3.org/2000/svg">
<path d="M3.52451 17.7549C2.14544 17.7549 1.02472 16.6425 1.02472 15.2601V15.242V15.2238V15.2055V15.1872V15.1688V15.1504V15.1319V15.1134V15.0947V15.0761V15.0573V15.0385V15.0197V15.0008V14.9818V14.9628V14.9437V14.9246V14.9054V14.8861V14.8668V14.8474V14.828V14.8085V14.789V14.7694V14.7497V14.73V14.7103V14.6905V14.6706V14.6507V14.6307V14.6107V14.5906V14.5704V14.5503V14.53V14.5097V14.4894V14.469V14.4485V14.428V14.4075V14.3869V14.3662V14.3455V14.3248V14.304V14.2831V14.2622V14.2413V14.2203V14.1992V14.1781V14.157V14.1358V14.1145V14.0932V14.0719V14.0505V14.0291V14.0076V13.9861V13.9645V13.9429V13.9212V13.8995V13.8778V13.856V13.8341V13.8122V13.7903V13.7683V13.7463V13.7242V13.7021V13.68V13.6578V13.6356V13.6133V13.591V13.5686V13.5462V13.5238V13.5013V13.4788V13.4562V13.4336V13.4109V13.3882V13.3655V13.3428V13.32V13.2971V13.2742V13.2513V13.2283V13.2053V13.1823V13.1592V13.1361V13.113V13.0898V13.0666V13.0433V13.02V12.9967V12.9733V12.9499V12.9265V12.903V12.8795V12.856V12.8324V12.8088V12.7852V12.7615V12.7378V12.7141V12.6903V12.6665V12.6427V12.6188V12.5949V12.571V12.547V12.523V12.499V12.4749V12.4508V12.4267V12.4026V12.3784V12.3542V12.33V12.3057V12.2814V12.2571V12.2327V12.2084V12.184V12.1595V12.1351V12.1106V12.0861V12.0616V12.037V12.0124V11.9878V11.9631V11.9385V11.9138V11.8891V11.8643V11.8396V11.8148V11.79V11.7651V11.7403V11.7154V11.6905V11.6656V11.6406V11.6156V11.5906V11.5656V11.5406V11.5155V11.4905V11.4654V11.4402V11.4151V11.3899V11.3648V11.3396V11.3143V11.2891V11.2638V11.2386V11.2133V11.188V11.1626V11.1373V11.1119V11.0865V11.0611V11.0357V11.0103V10.9849V10.9594V10.9339V10.9084V10.8829V10.8574V10.8319V10.8063V10.7807V10.7552V10.7296V10.704V10.6783V10.6527V10.627V10.6014V10.5757V10.55V10.5243V10.4986V10.4729V10.4472V10.4214V10.3957V10.3699V10.3442V10.3184V10.2926V10.2668V10.241V10.2152V10.1893V10.1635V10.1377V10.1118V10.086V10.0601V10.0342V10.0083V9.98244V9.95655V9.93065V9.90474V9.87883V9.85292V9.82699V9.80107V9.77513V9.7492V9.72326V9.69731V9.67136V9.64541V9.61945V9.59349V9.56753V9.54157V9.5156V9.48963V9.46366V9.43769V9.41171V9.38574V9.35976V9.33378V9.3078V9.28183V9.25585V9.22987V9.20389V9.17792V9.15194V9.12597V9.09999V9.07402V9.04805V9.02209V8.99612V8.97016V8.9442V8.91824V8.89229V8.86634V8.8404V8.81446V8.78852V8.76259V8.73666V8.71074V8.68482V8.65891V8.633V8.6071V8.58121V8.55532V8.52944V8.50357V8.4777V8.45184V8.42599V8.40015V8.37431V8.34848V8.32267V8.29686V8.27106V8.24527V8.21949V8.19372V8.16795V8.1422V8.11646V8.09073V8.06502V8.03931V8.01361V7.98793V7.96226V7.9366V7.91095V7.88532V7.8597V7.83409V7.80849V7.78291V7.75735V7.73179V7.70626V7.68073V7.65522V7.62973V7.60425V7.57879V7.55334V7.52791V7.5025V7.4771V7.45172V7.42636V7.40101V7.37568V7.35037V7.32508V7.2998V7.27455V7.24931V7.22409V7.19889V7.17371V7.14855V7.12341V7.09829V7.07319V7.04811V7.02305V6.99802V6.973V6.94801V6.92303V6.89808V6.87316V6.84825V6.82337V6.79851V6.77367V6.74886V6.72407V6.69931V6.67457V6.64985V6.62516V6.6005V6.57586V6.55124V6.52665V6.50209V6.47755V6.45304V6.42856V6.4041V6.37967V6.35527V6.33089V6.30655V6.28223V6.25794V6.23367V6.20944V6.18524V6.16106V6.13692V6.1128V6.08872V6.06466V6.04064V6.01664V5.99268V5.96875V5.94485V5.92098V5.89714V5.87334V5.84957V5.82583V5.80212V5.77845V5.75481V5.7312V5.70763V5.68409V5.66059V5.63712V5.61369V5.59029V5.56692V5.54359V5.5203V5.49705V5.47383V5.45064V5.4275V5.40439V5.38131V5.35828V5.33528V5.31232V5.2894V5.26652V5.24368V5.22087V5.1981V5.17538V5.15269V5.13004V5.10744V5.08487V5.06235V5.03986V5.01742V4.99502V4.97265V4.95034V4.92806V4.90582V4.88363V4.86148V4.83938V4.81731V4.79529V4.77332V4.75139V4.7295V4.70766V4.68586V4.6641V4.6424V4.62073V4.59912V4.57754V4.55602V4.53454V4.51311V4.49172V4.47039V4.44909V4.42785V4.40666V4.38551V4.36441V4.34336V4.32236V4.3014V4.2805V4.25965V4.23884V4.21809V4.19739V4.17673V4.15613V4.13558V4.11508V4.09463V4.07423V4.05388V4.03359V4.01335V3.99316V3.97303V3.95294V3.93292V3.91294V3.89302V3.87315V3.85334V3.83358V3.81387V3.79423V3.77463V3.75509V3.73561V3.71619V3.69682V3.6775V3.65825V3.63905V3.6199V3.60082V3.58179V3.56282V3.54391V3.52506V3.50626V3.48753V3.46885V3.45023V3.43168V3.41318V3.39474V3.37636V3.35805V3.33979V3.3216V3.30346C1.02472 1.92171 2.14302 0.808688 3.52269 0.808688H3.54208H3.56153H3.58105H3.60064H3.6203H3.64003H3.65983H3.6797H3.69963H3.71963H3.7397H3.75984H3.78004H3.80032H3.82065H3.84106H3.86152H3.88206H3.90266H3.92332H3.94405H3.96485H3.98571H4.00663H4.02762H4.04867H4.06978H4.09095H4.11219H4.13349H4.15486H4.17628H4.19776H4.21931H4.24092H4.26259H4.28432H4.30611H4.32795H4.34986H4.37183H4.39386H4.41594H4.43809H4.46029H4.48255H4.50487H4.52724H4.54967H4.57216H4.59471H4.61731H4.63997H4.66268H4.68545H4.70827H4.73115H4.75408H4.77707H4.80011H4.82321H4.84636H4.86956H4.89282H4.91612H4.93948H4.9629H4.98636H5.00988H5.03344H5.05706H5.08073H5.10445H5.12822H5.15204H5.17591H5.19983H5.2238H5.24781H5.27188H5.29599H5.32015H5.34436H5.36862H5.39292H5.41728H5.44167H5.46612H5.49061H5.51514H5.53973H5.56435H5.58902H5.61374H5.6385H5.66331H5.68816H5.71305H5.73799H5.76297H5.78799H5.81305H5.83816H5.86331H5.8885H5.91373H5.939H5.96432H5.98967H6.01507H6.0405H6.06598H6.09149H6.11705H6.14264H6.16827H6.19394H6.21965H6.24539H6.27118H6.297H6.32285H6.34875H6.37468H6.40065H6.42665H6.45269H6.47876H6.50487H6.53102H6.5572H6.58341H6.60966H6.63594H6.66225H6.6886H6.71498H6.74139H6.76784H6.79432H6.82083H6.84737H6.87394H6.90054H6.92718H6.95384H6.98054H7.00726H7.03402H7.0608H7.08761H7.11445H7.14132H7.16822H7.19515H7.2221H7.24909H7.27609H7.30313H7.33019H7.35728H7.3844H7.41154H7.4387H7.46589H7.49311H7.52035H7.54762H7.5749H7.60222H7.62956H7.65692H7.6843H7.71171H7.73913H7.76658H7.79406H7.82155H7.84907H7.87661H7.90416H7.93174H7.95934H7.98696H8.0146H8.04226H8.06993H8.09763H8.12534H8.15308H8.18083H8.2086H8.23638H8.26419H8.29201H8.31985H8.3477H8.37557H8.40346H8.43136H8.45928H8.48721H8.51516H8.54312H8.5711H8.59909H8.62709H8.65511H8.68314H8.71118H8.73924H8.76731H8.79539H8.82348H8.85158H8.8797H8.90782H8.93596H8.96411H8.99226H9.02043H9.04861H9.07679H9.10499H9.13319H9.16141H9.18963H9.21786H9.24609H9.27434H9.30259H9.33084H9.35911H9.38738H9.41566H9.44394H9.47223H9.50052H9.52882H9.55712H9.58543H9.61374H9.64205H9.67037H9.69869H9.72702H9.75535H9.78368H9.81201H9.84034H9.86868H9.89702H9.92535H9.95369H9.98203H10.0104H10.0387H10.0671H10.0954H10.1237H10.1521H10.1804H10.2087H10.2371H10.2654H10.2937H10.3221H10.3504H10.3787H10.407H10.4353H10.4636H10.4919H10.5202H10.5485H10.5768H10.6051H10.6334H10.6616H10.6899H10.7182H10.7464H10.7747H10.8029H10.8311H10.8593H10.8876H10.9158H10.944H10.9721H11.0003H11.0285H11.0566H11.0848H11.1129H11.1411H11.1692H11.1973H11.2254H11.2534H11.2815H11.3096H11.3376H11.3656H11.3937H11.4217H11.4497H11.4776H11.5056H11.5335H11.5615H11.5894H11.6173H11.6452H11.673H11.7009H11.7287H11.7566H11.7844H11.8122H11.8399H11.8677H11.8954H11.9231H11.9508H11.9785H12.0062H12.0338H12.0614H12.089H12.1166H12.1441H12.1717H12.1992H12.2267H12.2542H12.2816H12.309H12.3364H12.3638H12.3912H12.4185H12.4458H12.4731H12.5004H12.5276H12.5549H12.582H12.6092H12.6364H12.6635H12.6906H12.7176H12.7447H12.7717H12.7986H12.8256H12.8525H12.8794H12.9063H12.9331H12.9599H12.9867H13.0135H13.0402H13.0669H13.0936H13.1202H13.1468H13.1734H13.1999H13.2264H13.2529H13.2794H13.3058H13.3321H13.3585H13.3848H13.4111H13.4373H13.4636H13.4897H13.5159H13.542H13.5681H13.5941H13.6201H13.6461H13.672H13.6979H13.7238H13.7496H13.7754H13.8011H13.8268H13.8525H13.8781H13.9037H13.9293H13.9548H13.9802H14.0057H14.0311H14.0564H14.0817H14.107H14.1322H14.1574H14.1826H14.2077H14.2328H14.2578H14.2828H14.3077H14.3326H14.3574H14.3822H14.407H14.4317H14.4564H14.481H14.5056H14.5301H14.5546H14.5791H14.6035H14.6278H14.6521H14.6764H14.7006H14.7248H14.7489H14.7729H14.797H14.8209H14.8448H14.8687H14.8925H14.9163H14.94H14.9637H14.9873H15.0109H15.0344H15.0579H15.0813H15.1046H15.1279H15.1512H15.1744H15.1975H15.2206H15.2437H15.2667H15.2896H15.3125H15.3353H15.3581H15.3808H15.4034H15.426H15.4486H15.4711H15.4935H15.5159H15.5382H15.5605H15.5827H15.6048H15.6269H15.6489H15.6709H15.6928H15.7146H15.7364H15.7582H15.7798H15.8014H15.823H15.8445H15.8659H15.8873H15.9086H15.9298H15.951H15.9721H15.9931H16.0141H16.035H16.0559H16.0767H16.0974H16.1181H16.1387H16.1592H16.1797H16.2001H16.2204H16.2407H16.2609H16.281H16.3011H16.3211H16.3411H16.3609H16.3807H16.4004H16.4201H16.4397H16.4592H16.4787H16.4981C17.8793 0.808688 18.996 1.92823 18.996 3.30838V3.31148V3.31457V3.31767V3.32077V3.32388V3.32698V3.33009V3.33319V3.3363V3.33942V3.34253V3.34564V3.34876V3.35188V3.355V3.35812V3.36124V3.36437V3.3675V3.37063V3.37376V3.37689V3.38002V3.38316V3.3863V3.38944V3.39258V3.39572V3.39887V3.40201V3.40516V3.40831V3.41146V3.41462V3.41777V3.42093V3.42409V3.42725V3.43041V3.43358V3.43674V3.43991V3.44308V3.44625V3.44942V3.4526V3.45577V3.45895V3.46213V3.46531V3.4685V3.47168V3.47487V3.47806V3.48125V3.48444V3.48763V3.49083V3.49402V3.49722V3.50042V3.50362V3.50683V3.51003V3.51324V3.51645V3.51966V3.52287V3.52609V3.5293V3.53252V3.53574V3.53896V3.54218V3.54541V3.54863V3.55186V3.55509V3.55832V3.56156V3.56479V3.56803V3.57126V3.5745V3.57775V3.58099V3.58423V3.58748V3.59073V3.59398V3.59723V3.60048V3.60374V3.60699V3.61025V3.61351V3.61677V3.62004V3.6233V3.62657V3.62984V3.63311V3.63638V3.63965V3.64292V3.6462V3.64948V3.65276V3.65604V3.65932V3.66261V3.6659V3.66918V3.67247V3.67576V3.67906V3.68235V3.68565V3.68895V3.69225V3.69555V3.69885V3.70216V3.70546V3.70877V3.71208V3.71539V3.7187V3.72202V3.72533V3.72865V3.73197V3.73529V3.73861V3.74194V3.74526V3.74859V3.75192V3.75525V3.75858V3.76192V3.76525V3.76859V3.77193V3.77527V3.77861V3.78196V3.7853V3.78865V3.792V3.79535V3.7987V3.80205V3.80541V3.80876V3.81212V3.81548V3.81884V3.82221V3.82557V3.82894V3.8323V3.83567V3.83904V3.84242V3.84579V3.84917V3.85254V3.85592V3.8593V3.86269V3.86607V3.86945V3.87284V3.87623V3.87962V3.88301V3.8864V3.8898V3.8932V3.89659V3.89999V3.90339V3.9068V3.9102V3.91361V3.91701V3.92042V3.92383V3.92725V3.93066V3.93407V3.93749V3.94091V3.94433V3.94775V3.95117V3.9546V3.95802V3.96145V3.96488V3.96831V3.97174V3.97518V3.97861V3.98205V3.98549V3.98893V3.99237V3.99581V3.99926V4.0027V4.00615V4.0096V4.01305V4.0165V4.01995V4.02341V4.02687V4.03033V4.03378V4.03725V4.04071V4.04417V4.04764V4.05111V4.05458V4.05805V4.06152V4.06499V4.06847V4.07194V4.07542V4.0789V4.08238V4.08586V4.08935V4.09283V4.09632V4.09981V4.1033V4.10679V4.11028V4.11378V4.11728V4.12077V4.12427V4.12777V4.13127V4.13478V4.13828V4.14179V4.1453V4.14881V4.15232V4.15583V4.15934V4.16286V4.16638V4.1699V4.17342V4.17694V4.18046V4.18398V4.18751V4.19104V4.19457V4.1981V4.20163V4.20516V4.20869V4.21223V4.21577V4.21931V4.22285V4.22639V4.22993V4.23348V4.23702V4.24057V4.24412V4.24767V4.25122V4.25478V4.25833V4.26189V4.26545V4.26901V4.27257V4.27613V4.27969V4.28326V4.28682V4.29039V4.29396V4.29753V4.3011V4.30468V4.30825V4.31183V4.31541V4.31899V4.32257V4.32615V4.32973V4.33332V4.33691V4.34049V4.34408V4.34767V4.35127V4.35486V4.35845V4.36205V4.36565V4.36925V4.37285V4.37645V4.38005V4.38366V4.38727V4.39087V4.39448V4.39809V4.4017V4.40532V4.40893V4.41255V4.41617V4.41979V4.42341V4.42703V4.43065V4.43427V4.4379V4.44153V4.44516V4.44879V4.45242V4.45605V4.45968V4.46332V4.46696V4.4706V4.47424V4.47788V4.48152V4.48516V4.48881V4.49245V4.4961V4.49975V4.5034V4.50705V4.51071V4.51436V4.51802V4.52168V4.52533V4.52899V4.53266V4.53632V4.53998V4.54365V4.54732V4.55098V4.55465V4.55832V4.562V4.56567V4.56935V4.57302V4.5767V4.58038V4.58406V4.58774V4.59142V4.59511V4.59879V4.60248V4.60617V4.60986V4.61355V4.61724V4.62094V4.62463V4.62833V4.63203V4.63572V4.63943V4.64313V4.64683V4.65053V4.65424V4.65795V4.66165V4.66536V4.66908V4.67279V4.6765V4.68022V4.68393V4.68765V4.69137V4.69509V4.69881V4.70253V4.70626V4.70998V4.71371V4.71744V4.72117V4.7249V4.72863V4.73236V4.73609V4.73983V4.74357V4.74731V4.75104V4.75479V4.75853V4.76227V4.76602V4.76976V4.77351V4.77726V4.78101V4.78476V4.78851V4.79226V4.79602V4.79977V4.80353V4.80729V4.81105V4.81481V4.81857V4.82234V4.8261V4.82987V4.83364V4.8374V4.84117V4.84495V4.84872V4.85249V4.85627V4.86004V4.86382V4.8676V4.87138V4.87516V4.87894V4.88273V4.88651V4.8903V4.89409V4.89787V4.90166V4.90546V4.90925V4.91304V4.91684V4.92063V4.92443V4.92823V4.93203V4.93583V4.93963V4.94343V4.94724V4.95105V4.95485V4.95866V4.96247V4.96628V4.97009V4.97391V4.97772V4.98154V4.98535V4.98917V4.99299V4.99681V5.00063V5.00446V5.00828V5.0121V5.01593V5.01976V5.02359V5.02742V5.03125V5.03508V5.03892V5.04275V5.04659V5.05042V5.05426V5.0581V5.06194V5.06578V5.06963V5.07347V5.07732V5.08116V5.08501V5.08886V5.09271V5.09656V5.10042C18.996 5.30271 19.192 5.52677 19.5044 5.52677C19.5113 5.52677 19.5171 5.5261 19.5219 5.52515V2C19.5219 1.17157 18.8503 0.5 18.0219 0.5H2C1.17157 0.5 0.5 1.17157 0.5 2V16.5636C0.5 17.392 1.17157 18.0636 2 18.0636H11.9375C12.0228 18.0636 12.0919 17.9945 12.0919 17.9092C12.0919 17.8234 12.0228 17.7549 11.9381 17.7549H3.52451ZM3.52451 17.7549H3.53679M3.52451 17.7549H3.53679M3.53679 17.7549H3.5491M3.53679 17.7549H3.5491M3.5491 17.7549H3.56144M3.5491 17.7549H3.56144M3.56144 17.7549H3.5738M3.56144 17.7549H3.5738M3.5738 17.7549H3.58619M3.5738 17.7549H3.58619M3.58619 17.7549H3.59861M3.58619 17.7549H3.59861M3.59861 17.7549H3.61105M3.59861 17.7549H3.61105M3.61105 17.7549H3.62353M3.61105 17.7549H3.62353M3.62353 17.7549H3.63603M3.62353 17.7549H3.63603M3.63603 17.7549H3.64856M3.63603 17.7549H3.64856M3.64856 17.7549H3.66112M3.64856 17.7549H3.66112M3.66112 17.7549H3.6737M3.66112 17.7549H3.6737M3.6737 17.7549H3.68631M3.6737 17.7549H3.68631M3.68631 17.7549H3.69895M3.68631 17.7549H3.69895M3.69895 17.7549H3.71162M3.69895 17.7549H3.71162M3.71162 17.7549H3.72431M3.71162 17.7549H3.72431M3.72431 17.7549H3.73703M3.72431 17.7549H3.73703M3.73703 17.7549H3.74978M3.73703 17.7549H3.74978M3.74978 17.7549H3.76255M3.74978 17.7549H3.76255M3.76255 17.7549H3.77536M3.76255 17.7549H3.77536M3.77536 17.7549H3.78818M3.77536 17.7549H3.78818M3.78818 17.7549H3.80104M3.78818 17.7549H3.80104M3.80104 17.7549H3.81392M3.80104 17.7549H3.81392M3.81392 17.7549H3.82683M3.81392 17.7549H3.82683M3.82683 17.7549H3.83976M3.82683 17.7549H3.83976M3.83976 17.7549H3.85272M3.83976 17.7549H3.85272M3.85272 17.7549H3.86571M3.85272 17.7549H3.86571M3.86571 17.7549H3.87872M3.86571 17.7549H3.87872M3.87872 17.7549H3.89176M3.87872 17.7549H3.89176M3.89176 17.7549H3.90483M3.89176 17.7549H3.90483M3.90483 17.7549H3.91792M3.90483 17.7549H3.91792M3.91792 17.7549H3.93104M3.91792 17.7549H3.93104M3.93104 17.7549H3.94419M3.93104 17.7549H3.94419M3.94419 17.7549H3.95736M3.94419 17.7549H3.95736M3.95736 17.7549H3.97055M3.95736 17.7549H3.97055M3.97055 17.7549H3.98377M3.97055 17.7549H3.98377M3.98377 17.7549H3.99702M3.98377 17.7549H3.99702M3.99702 17.7549H4.01029M3.99702 17.7549H4.01029M4.01029 17.7549H4.02359M4.01029 17.7549H4.02359M4.02359 17.7549H4.03692M4.02359 17.7549H4.03692M4.03692 17.7549H4.05027M4.03692 17.7549H4.05027M4.05027 17.7549H4.06364M4.05027 17.7549H4.06364M4.06364 17.7549H4.07704M4.06364 17.7549H4.07704M4.07704 17.7549H4.09047M4.07704 17.7549H4.09047M4.09047 17.7549H4.10392M4.09047 17.7549H4.10392M4.10392 17.7549H4.11739M4.10392 17.7549H4.11739M4.11739 17.7549H4.13089M4.11739 17.7549H4.13089M4.13089 17.7549H4.14442M4.13089 17.7549H4.14442M4.14442 17.7549H4.15797M4.14442 17.7549H4.15797M4.15797 17.7549H4.17154M4.15797 17.7549H4.17154M4.17154 17.7549H4.18514M4.17154 17.7549H4.18514M4.18514 17.7549H4.19877M4.18514 17.7549H4.19877M4.19877 17.7549H4.21242M4.19877 17.7549H4.21242M4.21242 17.7549H4.22609M4.21242 17.7549H4.22609M4.22609 17.7549H4.23979M4.22609 17.7549H4.23979M4.23979 17.7549H4.25351M4.23979 17.7549H4.25351M4.25351 17.7549H4.26726M4.25351 17.7549H4.26726M4.26726 17.7549H4.28103M4.26726 17.7549H4.28103M4.28103 17.7549H4.29482M4.28103 17.7549H4.29482M4.29482 17.7549H4.30864M4.29482 17.7549H4.30864M4.30864 17.7549H4.32248M4.30864 17.7549H4.32248M4.32248 17.7549H4.33635M4.32248 17.7549H4.33635M4.33635 17.7549H4.35024M4.33635 17.7549H4.35024M4.35024 17.7549H4.36416M4.35024 17.7549H4.36416M4.36416 17.7549H4.3781M4.36416 17.7549H4.3781M4.3781 17.7549H4.39206M4.3781 17.7549H4.39206M4.39206 17.7549H4.40604M4.39206 17.7549H4.40604M4.40604 17.7549H4.42005M4.40604 17.7549H4.42005M4.42005 17.7549H4.43409M4.42005 17.7549H4.43409M4.43409 17.7549H4.44814M4.43409 17.7549H4.44814M4.44814 17.7549H4.46222M4.44814 17.7549H4.46222M4.46222 17.7549H4.47632M4.46222 17.7549H4.47632M4.47632 17.7549H4.49045M4.47632 17.7549H4.49045M4.49045 17.7549H4.5046M4.49045 17.7549H4.5046M4.5046 17.7549H4.51877M4.5046 17.7549H4.51877M4.51877 17.7549H4.53296M4.51877 17.7549H4.53296M4.53296 17.7549H4.54718M4.53296 17.7549H4.54718M4.54718 17.7549H4.56142M4.54718 17.7549H4.56142M4.56142 17.7549H4.57569M4.56142 17.7549H4.57569M4.57569 17.7549H4.58997M4.57569 17.7549H4.58997M4.58997 17.7549H4.60428M4.58997 17.7549H4.60428M4.60428 17.7549H4.61861M4.60428 17.7549H4.61861M4.61861 17.7549H4.63296M4.61861 17.7549H4.63296M4.63296 17.7549H4.64734M4.63296 17.7549H4.64734M4.64734 17.7549H4.66174M4.64734 17.7549H4.66174M4.66174 17.7549H4.67616M4.66174 17.7549H4.67616M4.67616 17.7549H4.6906M4.67616 17.7549H4.6906M4.6906 17.7549H4.70507M4.6906 17.7549H4.70507M4.70507 17.7549H4.71955M4.70507 17.7549H4.71955M4.71955 17.7549H4.73406M4.71955 17.7549H4.73406M4.73406 17.7549H4.74859M4.73406 17.7549H4.74859M4.74859 17.7549H4.76315M4.74859 17.7549H4.76315M4.76315 17.7549H4.77772M4.76315 17.7549H4.77772M4.77772 17.7549H4.79232M4.77772 17.7549H4.79232M4.79232 17.7549H4.80694M4.79232 17.7549H4.80694M4.80694 17.7549H4.82157M4.80694 17.7549H4.82157M4.82157 17.7549H4.83624M4.82157 17.7549H4.83624M4.83624 17.7549H4.85092M4.83624 17.7549H4.85092M4.85092 17.7549H4.86562M4.85092 17.7549H4.86562M4.86562 17.7549H4.88035M4.86562 17.7549H4.88035M4.88035 17.7549H4.89509M4.88035 17.7549H4.89509M4.89509 17.7549H4.90986M4.89509 17.7549H4.90986M4.90986 17.7549H4.92465M4.90986 17.7549H4.92465M4.92465 17.7549H4.93946M4.92465 17.7549H4.93946M4.93946 17.7549H4.95429M4.93946 17.7549H4.95429M4.95429 17.7549H4.96914M4.95429 17.7549H4.96914M4.96914 17.7549H4.98401M4.96914 17.7549H4.98401M4.98401 17.7549H4.9989M4.98401 17.7549H4.9989M4.9989 17.7549H5.01382M4.9989 17.7549H5.01382M5.01382 17.7549H5.02875M5.01382 17.7549H5.02875M5.02875 17.7549H5.04371M5.02875 17.7549H5.04371M5.04371 17.7549H5.05868M5.04371 17.7549H5.05868M5.05868 17.7549H5.07368M5.05868 17.7549H5.07368M5.07368 17.7549H5.08869M5.07368 17.7549H5.08869M5.08869 17.7549H5.10373M5.08869 17.7549H5.10373M5.10373 17.7549H5.11878M5.10373 17.7549H5.11878M5.11878 17.7549H5.13386M5.11878 17.7549H5.13386M5.13386 17.7549H5.14896M5.13386 17.7549H5.14896M5.14896 17.7549H5.16407M5.14896 17.7549H5.16407M5.16407 17.7549H5.17921M5.16407 17.7549H5.17921M5.17921 17.7549H5.19436M5.17921 17.7549H5.19436M5.19436 17.7549H5.20954M5.19436 17.7549H5.20954M5.20954 17.7549H5.22473M5.20954 17.7549H5.22473M5.22473 17.7549H5.23995M5.22473 17.7549H5.23995M5.23995 17.7549H5.25518M5.23995 17.7549H5.25518M5.25518 17.7549H5.27044M5.25518 17.7549H5.27044M5.27044 17.7549H5.28571M5.27044 17.7549H5.28571M5.28571 17.7549H5.301M5.28571 17.7549H5.301M5.301 17.7549H5.31632M5.301 17.7549H5.31632M5.31632 17.7549H5.33165M5.31632 17.7549H5.33165M5.33165 17.7549H5.347M5.33165 17.7549H5.347M5.347 17.7549H5.36237M5.347 17.7549H5.36237M5.36237 17.7549H5.37775M5.36237 17.7549H5.37775M5.37775 17.7549H5.39316M5.37775 17.7549H5.39316M5.39316 17.7549H5.40859M5.39316 17.7549H5.40859M5.40859 17.7549H5.42403M5.40859 17.7549H5.42403M5.42403 17.7549H5.4395M5.42403 17.7549H5.4395M5.4395 17.7549H5.45498M5.4395 17.7549H5.45498M5.45498 17.7549H5.47048M5.45498 17.7549H5.47048M5.47048 17.7549H5.486M5.47048 17.7549H5.486M5.486 17.7549H5.50154M5.486 17.7549H5.50154M5.50154 17.7549H5.51709M5.50154 17.7549H5.51709M5.51709 17.7549H5.53267M5.51709 17.7549H5.53267M5.53267 17.7549H5.54826M5.53267 17.7549H5.54826M5.54826 17.7549H5.56387M5.54826 17.7549H5.56387M5.56387 17.7549H5.5795M5.56387 17.7549H5.5795M5.5795 17.7549H5.59514M5.5795 17.7549H5.59514M5.59514 17.7549H5.61081M5.59514 17.7549H5.61081M5.61081 17.7549H5.62649M5.61081 17.7549H5.62649M5.62649 17.7549H5.64219M5.62649 17.7549H5.64219M5.64219 17.7549H5.65791M5.64219 17.7549H5.65791M5.65791 17.7549H5.67365M5.65791 17.7549H5.67365M5.67365 17.7549H5.6894M5.67365 17.7549H5.6894M5.6894 17.7549H5.70517M5.6894 17.7549H5.70517M5.70517 17.7549H5.72096M5.70517 17.7549H5.72096M5.72096 17.7549H5.73676M5.72096 17.7549H5.73676M5.73676 17.7549H5.75259M5.73676 17.7549H5.75259M5.75259 17.7549H5.76843M5.75259 17.7549H5.76843M5.76843 17.7549H5.78428M5.76843 17.7549H5.78428M5.78428 17.7549H5.80016M5.78428 17.7549H5.80016M5.80016 17.7549H5.81605M5.80016 17.7549H5.81605M5.81605 17.7549H5.83196M5.81605 17.7549H5.83196M5.83196 17.7549H5.84788M5.83196 17.7549H5.84788M5.84788 17.7549H5.86382M5.84788 17.7549H5.86382M5.86382 17.7549H5.87978M5.86382 17.7549H5.87978M5.87978 17.7549H5.89576M5.87978 17.7549H5.89576M5.89576 17.7549H5.91175M5.89576 17.7549H5.91175M5.91175 17.7549H5.92776M5.91175 17.7549H5.92776M5.92776 17.7549H5.94378M5.92776 17.7549H5.94378M5.94378 17.7549H5.95983M5.94378 17.7549H5.95983M5.95983 17.7549H5.97588M5.95983 17.7549H5.97588M5.97588 17.7549H5.99196M5.97588 17.7549H5.99196M5.99196 17.7549H6.00805M5.99196 17.7549H6.00805M6.00805 17.7549H6.02415M6.00805 17.7549H6.02415M6.02415 17.7549H6.04028M6.02415 17.7549H6.04028M6.04028 17.7549H6.05642M6.04028 17.7549H6.05642M6.05642 17.7549H6.07257M6.05642 17.7549H6.07257M6.07257 17.7549H6.08874M6.07257 17.7549H6.08874M6.08874 17.7549H6.10493M6.08874 17.7549H6.10493M6.10493 17.7549H6.12113M6.10493 17.7549H6.12113M6.12113 17.7549H6.13734M6.12113 17.7549H6.13734M6.13734 17.7549H6.15358M6.13734 17.7549H6.15358M6.15358 17.7549H6.16983M6.15358 17.7549H6.16983M6.16983 17.7549H6.18609M6.16983 17.7549H6.18609M6.18609 17.7549H6.20237M6.18609 17.7549H6.20237M6.20237 17.7549H6.21866M6.20237 17.7549H6.21866M6.21866 17.7549H6.23497M6.21866 17.7549H6.23497M6.23497 17.7549H6.2513M6.23497 17.7549H6.2513M6.2513 17.7549H6.26764M6.2513 17.7549H6.26764M6.26764 17.7549H6.28399M6.26764 17.7549H6.28399M6.28399 17.7549H6.30036M6.28399 17.7549H6.30036M6.30036 17.7549H6.31675M6.30036 17.7549H6.31675M6.31675 17.7549H6.33315M6.31675 17.7549H6.33315M6.33315 17.7549H6.34956M6.33315 17.7549H6.34956M6.34956 17.7549H6.36599M6.34956 17.7549H6.36599M6.36599 17.7549H6.38243M6.36599 17.7549H6.38243M6.38243 17.7549H6.39889M6.38243 17.7549H6.39889M6.39889 17.7549H6.41536M6.39889 17.7549H6.41536M6.41536 17.7549H6.43185M6.41536 17.7549H6.43185M6.43185 17.7549H6.44835M6.43185 17.7549H6.44835M6.44835 17.7549H6.46486M6.44835 17.7549H6.46486M6.46486 17.7549H6.48139M6.46486 17.7549H6.48139M6.48139 17.7549H6.49794M6.48139 17.7549H6.49794M6.49794 17.7549H6.51449M6.49794 17.7549H6.51449M6.51449 17.7549H6.53107M6.51449 17.7549H6.53107M6.53107 17.7549H6.54765M6.53107 17.7549H6.54765M6.54765 17.7549H6.56425M6.54765 17.7549H6.56425M6.56425 17.7549H6.58086M6.56425 17.7549H6.58086M6.58086 17.7549H6.59749M6.58086 17.7549H6.59749M6.59749 17.7549H6.61413M6.59749 17.7549H6.61413M6.61413 17.7549H6.63078M6.61413 17.7549H6.63078M6.63078 17.7549H6.64745M6.63078 17.7549H6.64745M6.64745 17.7549H6.66413M6.64745 17.7549H6.66413M6.66413 17.7549H6.68083M6.66413 17.7549H6.68083M6.68083 17.7549H6.69753M6.68083 17.7549H6.69753M6.69753 17.7549H6.71425M6.69753 17.7549H6.71425M6.71425 17.7549H6.73099M6.71425 17.7549H6.73099M6.73099 17.7549H6.74773M6.73099 17.7549H6.74773M6.74773 17.7549H6.76449M6.74773 17.7549H6.76449M6.76449 17.7549H6.78126M6.76449 17.7549H6.78126M6.78126 17.7549H6.79805M6.78126 17.7549H6.79805M6.79805 17.7549H6.81485M6.79805 17.7549H6.81485M6.81485 17.7549H6.83166M6.81485 17.7549H6.83166M6.83166 17.7549H6.84848M6.83166 17.7549H6.84848M6.84848 17.7549H6.86532M6.84848 17.7549H6.86532M6.86532 17.7549H6.88217M6.86532 17.7549H6.88217M6.88217 17.7549H6.89903M6.88217 17.7549H6.89903M6.89903 17.7549H6.9159M6.89903 17.7549H6.9159M6.9159 17.7549H6.93279M6.9159 17.7549H6.93279M6.93279 17.7549H6.94968M6.93279 17.7549H6.94968M6.94968 17.7549H6.96659M6.94968 17.7549H6.96659M6.96659 17.7549H6.98351M6.96659 17.7549H6.98351M6.98351 17.7549H7.00045M6.98351 17.7549H7.00045M7.00045 17.7549H7.01739M7.00045 17.7549H7.01739M7.01739 17.7549H7.03435M7.01739 17.7549H7.03435M7.03435 17.7549H7.05132M7.03435 17.7549H7.05132M7.05132 17.7549H7.0683M7.05132 17.7549H7.0683M7.0683 17.7549H7.08529M7.0683 17.7549H7.08529M7.08529 17.7549H7.1023M7.08529 17.7549H7.1023M7.1023 17.7549H7.11931M7.1023 17.7549H7.11931M7.11931 17.7549H7.13634M7.11931 17.7549H7.13634M7.13634 17.7549H7.15338M7.13634 17.7549H7.15338M7.15338 17.7549H7.17043M7.15338 17.7549H7.17043M7.17043 17.7549H7.18749M7.17043 17.7549H7.18749M7.18749 17.7549H7.20456M7.18749 17.7549H7.20456M7.20456 17.7549H7.22165M7.20456 17.7549H7.22165M7.22165 17.7549H7.23874M7.22165 17.7549H7.23874M7.23874 17.7549H7.25585M7.23874 17.7549H7.25585M7.25585 17.7549H7.27296M7.25585 17.7549H7.27296M7.27296 17.7549H7.29009M7.27296 17.7549H7.29009M7.29009 17.7549H7.30723M7.29009 17.7549H7.30723M7.30723 17.7549H7.32438M7.30723 17.7549H7.32438M7.32438 17.7549H7.34154M7.32438 17.7549H7.34154M7.34154 17.7549H7.35871M7.34154 17.7549H7.35871M7.35871 17.7549H7.37589M7.35871 17.7549H7.37589M7.37589 17.7549H7.39308M7.37589 17.7549H7.39308M7.39308 17.7549H7.41028M7.39308 17.7549H7.41028M7.41028 17.7549H7.42749M7.41028 17.7549H7.42749M7.42749 17.7549H7.44471M7.42749 17.7549H7.44471M7.44471 17.7549H7.46194M7.44471 17.7549H7.46194M7.46194 17.7549H7.47918M7.46194 17.7549H7.47918M7.47918 17.7549H7.49643M7.47918 17.7549H7.49643M7.49643 17.7549H7.51369M7.49643 17.7549H7.51369M7.51369 17.7549H7.53096M7.51369 17.7549H7.53096M7.53096 17.7549H7.54825M7.53096 17.7549H7.54825M7.54825 17.7549H7.56554M7.54825 17.7549H7.56554M7.56554 17.7549H7.58284M7.56554 17.7549H7.58284M7.58284 17.7549H7.60015M7.58284 17.7549H7.60015M7.60015 17.7549H7.61747M7.60015 17.7549H7.61747M7.61747 17.7549H7.63479M7.61747 17.7549H7.63479M7.63479 17.7549H7.65213M7.63479 17.7549H7.65213M7.65213 17.7549H7.66948M7.65213 17.7549H7.66948M7.66948 17.7549H7.68684M7.66948 17.7549H7.68684M7.68684 17.7549H7.7042M7.68684 17.7549H7.7042M7.7042 17.7549H7.72158M7.7042 17.7549H7.72158M7.72158 17.7549H7.73896M7.72158 17.7549H7.73896M7.73896 17.7549H7.75635M7.73896 17.7549H7.75635M7.75635 17.7549H7.77375M7.75635 17.7549H7.77375M7.77375 17.7549H7.79116M7.77375 17.7549H7.79116M7.79116 17.7549H7.80858M7.79116 17.7549H7.80858M7.80858 17.7549H7.82601M7.80858 17.7549H7.82601M7.82601 17.7549H7.84345M7.82601 17.7549H7.84345M7.84345 17.7549H7.86089M7.84345 17.7549H7.86089M7.86089 17.7549H7.87834M7.86089 17.7549H7.87834M7.87834 17.7549H7.8958M7.87834 17.7549H7.8958M7.8958 17.7549H7.91327M7.8958 17.7549H7.91327M7.91327 17.7549H7.93075M7.91327 17.7549H7.93075M7.93075 17.7549H7.94824M7.93075 17.7549H7.94824M7.94824 17.7549H7.96573M7.94824 17.7549H7.96573M7.96573 17.7549H7.98324M7.96573 17.7549H7.98324M7.98324 17.7549H8.00075M7.98324 17.7549H8.00075M8.00075 17.7549H8.01826M8.00075 17.7549H8.01826M8.01826 17.7549H8.03579M8.01826 17.7549H8.03579M8.03579 17.7549H8.05332M8.03579 17.7549H8.05332M8.05332 17.7549H8.07086M8.05332 17.7549H8.07086M8.07086 17.7549H8.08841M8.07086 17.7549H8.08841M8.08841 17.7549H8.10597M8.08841 17.7549H8.10597M8.10597 17.7549H8.12353M8.10597 17.7549H8.12353M8.12353 17.7549H8.1411M8.12353 17.7549H8.1411M8.1411 17.7549H8.15868M8.1411 17.7549H8.15868M8.15868 17.7549H8.17627M8.15868 17.7549H8.17627M8.17627 17.7549H8.19386M8.17627 17.7549H8.19386M8.19386 17.7549H8.21146M8.19386 17.7549H8.21146M8.21146 17.7549H8.22907M8.21146 17.7549H8.22907M8.22907 17.7549H8.24668M8.22907 17.7549H8.24668M8.24668 17.7549H8.2643M8.24668 17.7549H8.2643M8.2643 17.7549H8.28193M8.2643 17.7549H8.28193M8.28193 17.7549H8.29957M8.28193 17.7549H8.29957M8.29957 17.7549H8.31721M8.29957 17.7549H8.31721M8.31721 17.7549H8.33486M8.31721 17.7549H8.33486M8.33486 17.7549H8.35251M8.33486 17.7549H8.35251M8.35251 17.7549H8.37017M8.35251 17.7549H8.37017M8.37017 17.7549H8.38784M8.37017 17.7549H8.38784M8.38784 17.7549H8.40551M8.38784 17.7549H8.40551M8.40551 17.7549H8.42319M8.40551 17.7549H8.42319M8.42319 17.7549H8.44088M8.42319 17.7549H8.44088M8.44088 17.7549H8.45857M8.44088 17.7549H8.45857M8.45857 17.7549H8.47627M8.45857 17.7549H8.47627M8.47627 17.7549H8.49397M8.47627 17.7549H8.49397M8.49397 17.7549H8.51168M8.49397 17.7549H8.51168M8.51168 17.7549H8.5294M8.51168 17.7549H8.5294M8.5294 17.7549H8.54712M8.5294 17.7549H8.54712M8.54712 17.7549H8.56485M8.54712 17.7549H8.56485M8.56485 17.7549H8.58258M8.56485 17.7549H8.58258M8.58258 17.7549H8.60032M8.58258 17.7549H8.60032M8.60032 17.7549H8.61807M8.60032 17.7549H8.61807M8.61807 17.7549H8.63582M8.61807 17.7549H8.63582M8.63582 17.7549H8.65357M8.63582 17.7549H8.65357M8.65357 17.7549H8.67133M8.65357 17.7549H8.67133M8.67133 17.7549H8.6891M8.67133 17.7549H8.6891M8.6891 17.7549H8.70687M8.6891 17.7549H8.70687M8.70687 17.7549H8.72464M8.70687 17.7549H8.72464M8.72464 17.7549H8.74242M8.72464 17.7549H8.74242M8.74242 17.7549H8.76021M8.74242 17.7549H8.76021M8.76021 17.7549H8.778M8.76021 17.7549H8.778M8.778 17.7549H8.7958M8.778 17.7549H8.7958M8.7958 17.7549H8.8136M8.7958 17.7549H8.8136M8.8136 17.7549H8.8314M8.8136 17.7549H8.8314M8.8314 17.7549H8.84921M8.8314 17.7549H8.84921M8.84921 17.7549H8.86702M8.84921 17.7549H8.86702M8.86702 17.7549H8.88484M8.86702 17.7549H8.88484M8.88484 17.7549H8.90267M8.88484 17.7549H8.90267M8.90267 17.7549H8.92049M8.90267 17.7549H8.92049M8.92049 17.7549H8.93832M8.92049 17.7549H8.93832M8.93832 17.7549H8.95616M8.93832 17.7549H8.95616M8.95616 17.7549H8.974M8.95616 17.7549H8.974M8.974 17.7549H8.99184M8.974 17.7549H8.99184M8.99184 17.7549H9.00969M8.99184 17.7549H9.00969M9.00969 17.7549H9.02754M9.00969 17.7549H9.02754M9.02754 17.7549H9.0454M9.02754 17.7549H9.0454M9.0454 17.7549H9.06326M9.0454 17.7549H9.06326M9.06326 17.7549H9.08112M9.06326 17.7549H9.08112M9.08112 17.7549H9.09899M9.08112 17.7549H9.09899M9.09899 17.7549H9.11686M9.09899 17.7549H9.11686M9.11686 17.7549H9.13473M9.11686 17.7549H9.13473M9.13473 17.7549H9.15261M9.13473 17.7549H9.15261M9.15261 17.7549H9.17049M9.15261 17.7549H9.17049M9.17049 17.7549H9.18837M9.17049 17.7549H9.18837M9.18837 17.7549H9.20626M9.18837 17.7549H9.20626M9.20626 17.7549H9.22415M9.20626 17.7549H9.22415M9.22415 17.7549H9.24204M9.22415 17.7549H9.24204M9.24204 17.7549H9.25994M9.24204 17.7549H9.25994M9.25994 17.7549H9.27784M9.25994 17.7549H9.27784M9.27784 17.7549H9.29574M9.27784 17.7549H9.29574M9.29574 17.7549H9.31364M9.29574 17.7549H9.31364M9.31364 17.7549H9.33155M9.31364 17.7549H9.33155M9.33155 17.7549H9.34946M9.33155 17.7549H9.34946M9.34946 17.7549H9.36737M9.34946 17.7549H9.36737M9.36737 17.7549H9.38529M9.36737 17.7549H9.38529M9.38529 17.7549H9.4032M9.38529 17.7549H9.4032M9.4032 17.7549H9.42112M9.4032 17.7549H9.42112M9.42112 17.7549H9.43905M9.42112 17.7549H9.43905M9.43905 17.7549H9.45697M9.43905 17.7549H9.45697M9.45697 17.7549H9.4749M9.45697 17.7549H9.4749M9.4749 17.7549H9.49282M9.4749 17.7549H9.49282M9.49282 17.7549H9.51075M9.49282 17.7549H9.51075M9.51075 17.7549H9.52869M9.51075 17.7549H9.52869M9.52869 17.7549H9.54662M9.52869 17.7549H9.54662M9.54662 17.7549H9.56456M9.54662 17.7549H9.56456M9.56456 17.7549H9.5825M9.56456 17.7549H9.5825M9.5825 17.7549H9.60043M9.5825 17.7549H9.60043M9.60043 17.7549H9.61838M9.60043 17.7549H9.61838M9.61838 17.7549H9.63632M9.61838 17.7549H9.63632M9.63632 17.7549H9.65426M9.63632 17.7549H9.65426M9.65426 17.7549H9.67221M9.65426 17.7549H9.67221M9.67221 17.7549H9.69015M9.67221 17.7549H9.69015M9.69015 17.7549H9.7081M9.69015 17.7549H9.7081M9.7081 17.7549H9.72605M9.7081 17.7549H9.72605M9.72605 17.7549H9.744M9.72605 17.7549H9.744M9.744 17.7549H9.76195M9.744 17.7549H9.76195M9.76195 17.7549H9.77991M9.76195 17.7549H9.77991M9.77991 17.7549H9.79786M9.77991 17.7549H9.79786M9.79786 17.7549H9.81581M9.79786 17.7549H9.81581M9.81581 17.7549H9.83377M9.81581 17.7549H9.83377M9.83377 17.7549H9.85172M9.83377 17.7549H9.85172M9.85172 17.7549H9.86968M9.85172 17.7549H9.86968M9.86968 17.7549H9.88764M9.86968 17.7549H9.88764M9.88764 17.7549H9.90559M9.88764 17.7549H9.90559M9.90559 17.7549H9.92355M9.90559 17.7549H9.92355M9.92355 17.7549H9.94151M9.92355 17.7549H9.94151M9.94151 17.7549H9.95947M9.94151 17.7549H9.95947M9.95947 17.7549H9.97742M9.95947 17.7549H9.97742M9.97742 17.7549H9.99538M9.97742 17.7549H9.99538M9.99538 17.7549H10.0133M9.99538 17.7549H10.0133M10.0133 17.7549H10.0313M10.0133 17.7549H10.0313M10.0313 17.7549H10.0493M10.0313 17.7549H10.0493M10.0493 17.7549H10.0672M10.0493 17.7549H10.0672M10.0672 17.7549H10.0852M10.0672 17.7549H10.0852M10.0852 17.7549H10.1031M10.0852 17.7549H10.1031M10.1031 17.7549H10.1211M10.1031 17.7549H10.1211M10.1211 17.7549H10.139M10.1211 17.7549H10.139M10.139 17.7549H10.157M10.139 17.7549H10.157M10.157 17.7549H10.175M10.157 17.7549H10.175M10.175 17.7549H10.1929M10.175 17.7549H10.1929M10.1929 17.7549H10.2109M10.1929 17.7549H10.2109M10.2109 17.7549H10.2288M10.2109 17.7549H10.2288M10.2288 17.7549H10.2468M10.2288 17.7549H10.2468M10.2468 17.7549H10.2647M10.2468 17.7549H10.2647M10.2647 17.7549H10.2827M10.2647 17.7549H10.2827M10.2827 17.7549H10.3006M10.2827 17.7549H10.3006M10.3006 17.7549H10.3186M10.3006 17.7549H10.3186M10.3186 17.7549H10.3365M10.3186 17.7549H10.3365M10.3365 17.7549H10.3545M10.3365 17.7549H10.3545M10.3545 17.7549H10.3724M10.3545 17.7549H10.3724M10.3724 17.7549H10.3904M10.3724 17.7549H10.3904M10.3904 17.7549H10.4083M10.3904 17.7549H10.4083M10.4083 17.7549H10.4262M10.4083 17.7549H10.4262M10.4262 17.7549H10.4442M10.4262 17.7549H10.4442M10.4442 17.7549H10.4621M10.4442 17.7549H10.4621M10.4621 17.7549H10.48M10.4621 17.7549H10.48M10.48 17.7549H10.498M10.48 17.7549H10.498M10.498 17.7549H10.5159M10.498 17.7549H10.5159M10.5159 17.7549H10.5338M10.5159 17.7549H10.5338M10.5338 17.7549H10.5518M10.5338 17.7549H10.5518M10.5518 17.7549H10.5697M10.5518 17.7549H10.5697M10.5697 17.7549H10.5876M10.5697 17.7549H10.5876M10.5876 17.7549H10.6055M10.5876 17.7549H10.6055M10.6055 17.7549H10.6235M10.6055 17.7549H10.6235M10.6235 17.7549H10.6414M10.6235 17.7549H10.6414M10.6414 17.7549H10.6593M10.6414 17.7549H10.6593M10.6593 17.7549H10.6772M10.6593 17.7549H10.6772M10.6772 17.7549H10.6951M10.6772 17.7549H10.6951M10.6951 17.7549H10.713M10.6951 17.7549H10.713M10.713 17.7549H10.7309M10.713 17.7549H10.7309M10.7309 17.7549H10.7488H10.7309Z" stroke="#666666"/>
<path d="M3.69269 9.28177C3.69269 9.66037 3.99961 9.96729 4.37821 9.96729H13.5692C13.8401 9.96729 14.0698 9.77527 14.1573 9.51883C14.3019 9.09505 14.0224 8.59624 13.5746 8.59624H4.37821C3.99961 8.59624 3.69269 8.90316 3.69269 9.28177Z" fill="#666666"/>
<path d="M15.6402 4.30954H4.37821C3.99961 4.30954 3.69269 4.61646 3.69269 4.99506C3.69269 5.37366 3.99961 5.68058 4.37821 5.68058H15.6402C16.0188 5.68058 16.3257 5.37366 16.3257 4.99506C16.3257 4.61646 16.0188 4.30954 15.6402 4.30954Z" fill="#666666"/>
<path d="M15.6402 4.30954H4.37821C3.99961 4.30954 3.69269 4.61646 3.69269 4.99506C3.69269 5.37366 3.99961 5.68058 4.37821 5.68058H15.6402C16.0188 5.68058 16.3257 5.37366 16.3257 4.99506C16.3257 4.61646 16.0188 4.30954 15.6402 4.30954Z" fill="#666666"/>
<path d="M3.69269 13.5695C3.69269 13.9481 3.99961 14.255 4.37821 14.255H14.2962C14.3736 14.255 14.4481 14.2367 14.5176 14.2026C14.8564 14.0366 14.996 13.5516 14.7807 13.2417C14.7585 13.2098 14.7367 13.1778 14.7153 13.1455C14.6091 12.9859 14.4332 12.884 14.2416 12.884H4.37821C3.99961 12.884 3.69269 13.1909 3.69269 13.5695Z" fill="#666666"/>
<path d="M23.1626 10.8196C23.1626 12.4485 21.6049 13.8922 19.5056 13.8922C17.4167 13.8922 15.8571 12.449 15.8571 10.8196C15.8571 9.18825 17.4167 7.74603 19.5056 7.74603C21.6048 7.74603 23.1626 9.18878 23.1626 10.8196Z" stroke="#666666"/>
<path d="M14.0538 14.9723C14.0515 15.0023 14.043 15.0308 14.0345 15.0591C14.0247 15.0914 14.0151 15.1235 14.0151 15.1573L14.0151 20.9076C14.0102 22.0593 14.9824 23 16.1733 23L22.8356 23C24.0254 23 25 22.0624 25 20.9076L25 15.1573C25 15.1237 24.9905 15.092 24.9808 15.06C24.9722 15.0317 24.9636 15.003 24.9613 14.9723M14.0538 14.9723V15.1573L14.0538 15.4723H14.5151M14.0538 14.9723L14.5524 15.0096C14.5484 15.0632 14.5388 15.1084 14.5308 15.1407C14.5254 15.1622 14.5191 15.1835 14.5151 15.1971L14.5151 15.4723M14.0538 14.9723L24.9613 14.9723M14.5151 15.4723L14.5151 20.9076V20.9097C14.5114 21.7677 15.2423 22.5 16.1733 22.5L22.8356 22.5C23.7661 22.5 24.5 21.7698 24.5 20.9076L24.5 15.4723M14.5151 15.4723L24.5 15.4723M24.5 15.4723H24.9613V15.1573V14.9723M24.5 15.4723V15.1975C24.4959 15.1838 24.4896 15.1624 24.4842 15.1408C24.476 15.1079 24.4666 15.0626 24.4627 15.009L24.9613 14.9723" stroke="#666666"/>
</svg>
