<svg width="32" height="32" viewBox="0 0 32 32" fill="none" xmlns="http://www.w3.org/2000/svg">
<path d="M5 12.3999V15.9999C5 19.3999 9.8 21.9999 16 21.9999C22.2 21.9999 27 19.3999 27 15.9999V12.3999C24.8 14.5999 20.8 15.9999 16 15.9999C11.2 15.9999 7.2 14.5999 5 12.3999Z" fill="#0191CE"/>
<path d="M5 20.3999V23.9999C5 27.3999 9.8 29.9999 16 29.9999C22.2 29.9999 27 27.3999 27 23.9999V20.3999C24.8 22.5999 20.8 23.9999 16 23.9999C11.2 23.9999 7.2 22.5999 5 20.3999Z" fill="#0191CE"/>
<path d="M16 14C22.0751 14 27 11.3137 27 8C27 4.68629 22.0751 2 16 2C9.92487 2 5 4.68629 5 8C5 11.3137 9.92487 14 16 14Z" fill="#0191CE"/>
</svg>

