<svg width="15" height="15" viewBox="0 0 15 15" fill="none" xmlns="http://www.w3.org/2000/svg">
<path d="M7.59256 10.2911C7.59256 8.65731 8.92171 7.32817 10.5555 7.32817C10.8852 7.32817 11.202 7.38307 11.4984 7.48287L11.745 4.52393H2.38196L3.11519 13.3224C3.19357 14.2632 3.99448 15.0001 4.93857 15.0001H9.18842C10.1325 15.0001 10.9334 14.2632 11.0118 13.3224L11.0205 13.2173C10.869 13.2413 10.7137 13.2541 10.5555 13.2541C8.92176 13.2541 7.59256 11.925 7.59256 10.2911Z" fill="white"/>
<path d="M10.5555 8.01562C9.30105 8.01562 8.2804 9.03628 8.2804 10.2908C8.2804 11.5453 9.30105 12.5659 10.5555 12.5659C11.81 12.5659 12.8307 11.5453 12.8307 10.2908C12.8307 9.03628 11.81 8.01562 10.5555 8.01562ZM11.6718 10.9206C11.8061 11.0549 11.8061 11.2726 11.6718 11.407C11.6046 11.4741 11.5166 11.5077 11.4285 11.5077C11.3405 11.5077 11.2525 11.4741 11.1853 11.407L10.5555 10.7772L9.92575 11.407C9.85858 11.4741 9.77055 11.5077 9.68252 11.5077C9.59454 11.5077 9.50646 11.4741 9.43928 11.407C9.30499 11.2726 9.30499 11.0549 9.43928 10.9206L10.0691 10.2908L9.43928 9.66098C9.30499 9.52664 9.30499 9.30891 9.43928 9.17456C9.57363 9.04032 9.79136 9.04032 9.9257 9.17456L10.5555 9.80436L11.1853 9.17456C11.3197 9.04032 11.5374 9.04032 11.6718 9.17456C11.8061 9.30891 11.8061 9.52664 11.6718 9.66098L11.042 10.2908L11.6718 10.9206Z" fill="white"/>
<path d="M5.66141 1.31828C5.66141 0.970657 5.94424 0.687828 6.29187 0.687828H7.8351C8.18278 0.687828 8.46561 0.970657 8.46561 1.31828V1.74793H9.15344V1.31828C9.15349 0.591414 8.56207 0 7.83515 0H6.29192C5.56505 0 4.97363 0.591414 4.97363 1.31828V1.74793H5.66141V1.31828Z" fill="white"/>
<path d="M11.9577 3.21408C11.9577 2.78479 11.6085 2.43555 11.1792 2.43555H2.94785C2.51855 2.43555 2.16931 2.78479 2.16931 3.21408V3.8358H11.9577V3.21408Z" fill="white"/>
</svg>