<svg width="13" height="13" viewBox="0 0 15 15" fill="none" xmlns="http://www.w3.org/2000/svg">
<g clip-path="url(#clip0_193_168)">
<path d="M1.31104 11.2136L10.5971 1.92725L13.0725 4.40262L3.78615 13.6887L1.31104 11.2136Z" fill="white"/>
<path d="M14.1337 3.34184L14.4873 2.98825C14.8179 2.65766 14.9999 2.2183 14.9999 1.75069C14.9999 1.28307 14.8179 0.843711 14.4873 0.513128C14.1567 0.182546 13.7171 0 13.2495 0C12.7819 0 12.3425 0.182296 12.0117 0.512878L11.6581 0.866467L14.1337 3.34184Z" fill="white"/>
<path d="M1.02498 11.6348L0.0127275 14.671C-0.01728 14.7608 0.00622588 14.8601 0.0732426 14.9268C0.120755 14.9744 0.184771 15.0001 0.250037 15.0001C0.276543 15.0001 0.30305 14.9959 0.329057 14.9871L3.36507 13.9751L1.02498 11.6348Z" fill="white"/>
<path d="M10.9509 1.57405L11.3048 1.22021L13.7801 3.69558L13.4263 4.04942L10.9509 1.57405Z" fill="white"/>
</g>
<defs>
<clipPath id="clip0_193_168">
<rect width="15" height="15" fill="white"/>
</clipPath>
</defs>
</svg>