<svg width="80" height="83" viewBox="0 0 80 83" fill="none" xmlns="http://www.w3.org/2000/svg">
<path d="M15.7241 46.1626H9.67319V52.3423H15.7241V46.1626Z" fill="white"/>
<path d="M26.4156 46.1626H20.3646V52.3423H26.4156V46.1626Z" fill="white"/>
<path d="M15.7241 57.3098H9.67319V63.4895H15.7241V57.3098Z" fill="white"/>
<path d="M26.4156 57.3098H20.3646V63.4895H26.4156V57.3098Z" fill="white"/>
<path d="M29.3531 24.4661H23.3021V30.6458H29.3531V24.4661Z" fill="white"/>
<path d="M40.0456 24.4661H33.9947V30.6458H40.0456V24.4661Z" fill="white"/>
<path d="M34.1005 34.1533H18.6748V20.9614L44.62 10.8911V28.2829H44.5168V62.9045C44.7992 62.6914 45.0995 62.5042 45.4139 62.345C46.3269 61.8826 47.5019 61.3639 48.7403 60.853V28.2829L48.7325 4.802L14.5623 18.0668V32.7506H0.613281V76.8989H41.2379V76.8503C41.2379 76.7125 41.2696 74.9042 41.4045 72.6989H34.1005V34.1533ZM31.3616 72.6989H4.72576V36.9503H31.3616V72.6989Z" fill="white"/>
<path d="M78.7003 67.572C78.6037 66.9987 78.3768 66.4566 78.0371 65.9894C77.6976 65.5224 77.2552 65.1432 76.7456 64.8832C73.3464 63.1526 65.8861 60.595 65.8861 60.595H65.2549L63.2136 63.3766L65.1275 76.8998H79.3861C79.3344 73.7795 79.1053 70.6651 78.7003 67.572Z" fill="white"/>
<path d="M68.3056 52.5482L69.3328 47.1404C69.4693 46.117 69.3893 45.0754 69.0989 44.0861C68.8085 43.0964 68.3141 42.182 67.6488 41.4039C66.9835 40.6258 66.1629 40.002 65.2421 39.5746C64.3213 39.1471 63.3216 38.9258 62.3101 38.9258H61.0899C60.0784 38.9258 59.0787 39.1471 58.1579 39.5746C57.2371 40.002 56.4165 40.6258 55.7515 41.4039C55.0861 42.182 54.5917 43.0964 54.3011 44.0861C54.0107 45.0754 53.9309 46.117 54.0672 47.1404L55.0947 52.5482C55.3928 54.1138 56.2149 55.5247 57.42 56.5394C58.6253 57.5538 60.1384 58.1085 61.7 58.1085C63.2619 58.1085 64.7749 57.5538 65.98 56.5394C67.1853 55.5247 68.0075 54.1138 68.3056 52.5482Z" fill="white"/>
<path d="M57.5144 60.595C57.5144 60.595 50.0541 63.1526 46.6549 64.8832C46.1453 65.1432 45.7029 65.5224 45.3635 65.9894C45.0237 66.4566 44.7968 66.9987 44.7003 67.572C44.2952 70.6651 44.0661 73.7795 44.0144 76.8998H58.2731L60.1869 63.3766L58.1456 60.595H57.5144Z" fill="white"/>
</svg>
