<svg width="35" height="35" viewBox="0 0 25 25" fill="none" xmlns="http://www.w3.org/2000/svg">
<g clip-path="url(#clip0_353_21)">
<path d="M20.3765 7.0874C20.3255 7.08503 20.2779 7.08966 20.2276 7.08853C20.286 6.83048 20.3244 6.56825 20.3392 6.30501C20.2081 3.88034 18.4825 2.15618 16.0592 2.02557C14.6377 1.9491 13.4529 2.67477 12.6923 3.73631C11.932 2.73579 10.7504 2.10294 9.32232 2.02557C6.90431 1.89531 5.16436 4.07828 5.04413 6.30501C5.03003 6.59114 5.04876 6.86623 5.09342 7.13252C4.94195 7.11075 4.78788 7.0962 4.63066 7.08729C2.01662 6.94676 0.135803 9.30613 0.00609969 11.7118C-0.126762 14.1711 1.95346 15.9809 4.20421 16.2937V16.3366H7.12368V7.84284H17.0713L19.5026 10.2004V16.3372H21.2625V16.2838C23.4057 15.9201 24.8855 13.8366 25.0001 11.7117C24.8609 9.09251 22.9961 7.22793 20.3765 7.0874Z" fill="white"/>
<path d="M16.1292 12.3335C14.3222 12.3335 12.515 12.3335 10.7075 12.3335C10.2536 12.3335 10.2536 13.038 10.7075 13.038C12.515 13.038 14.3221 13.038 16.1292 13.038C16.5821 13.0378 16.5821 12.3335 16.1292 12.3335Z" fill="white"/>
<path d="M16.1292 14.0005C14.3222 14.0005 12.515 14.0005 10.7075 14.0005C10.2536 14.0005 10.2536 14.7044 10.7075 14.7044C12.515 14.7044 14.3221 14.7044 16.1292 14.7044C16.5821 14.7045 16.5821 14.0005 16.1292 14.0005Z" fill="white"/>
<path d="M16.1292 15.5439C14.3222 15.5439 12.515 15.5439 10.7075 15.5439C10.2536 15.5439 10.2536 16.2472 10.7075 16.2472C12.515 16.2472 14.3221 16.2472 16.1292 16.2472C16.5821 16.2477 16.5821 15.5439 16.1292 15.5439Z" fill="white"/>
<path d="M16.1292 17.2104C14.3222 17.2104 12.515 17.2104 10.7075 17.2104C10.2536 17.2104 10.2536 17.9138 10.7075 17.9138C12.515 17.9138 14.3221 17.9138 16.1292 17.9138C16.5821 17.9139 16.5821 17.2104 16.1292 17.2104Z" fill="white"/>
<path d="M16.0237 18.7822C14.2168 18.7822 12.4101 18.7822 10.6031 18.7822C10.1493 18.7822 10.1493 19.4854 10.6031 19.4854C12.4101 19.4854 14.2167 19.4854 16.0237 19.4854C16.478 19.4854 16.478 18.7822 16.0237 18.7822Z" fill="white"/>
<path d="M7.81516 8.4292V22.9802H19.0209V10.4477L16.939 8.4292H7.81516V8.4292ZM18.0518 22.011H8.78399V9.39792H16.4396V10.9351H18.0518V22.011Z" fill="white"/>
</g>
<defs>
<clipPath id="clip0_353_21">
<rect width="25" height="25" fill="white"/>
</clipPath>
</defs>
</svg>
