<svg width="25" height="24" viewBox="0 0 25 24" fill="none" xmlns="http://www.w3.org/2000/svg">
<path d="M25.0001 12.6578C25.0001 13.4977 24.4326 14.1793 23.7321 14.1793C23.7296 14.1793 23.7245 14.1793 23.7194 14.1793H21.3072V22.2716C21.3072 23.1115 20.7391 23.7931 20.0392 23.7931H15.8753C15.1754 23.7931 14.6074 23.1115 14.6074 22.2716V17.9824C14.6074 16.5841 13.659 15.4468 12.4943 15.4468C11.3291 15.4468 10.3807 16.5841 10.3807 17.9824V22.2716C10.3807 23.1115 9.81265 23.7931 9.11275 23.7931H4.94819C4.24829 23.7931 3.68025 23.1115 3.68025 22.2716V14.1793H1.268C0.732924 14.1793 0.25491 13.7776 0.0748622 13.1736C-0.105819 12.5688 0.0476015 11.894 0.459048 11.4847L11.6854 0.34862C12.1545 -0.116207 12.8329 -0.116207 13.3014 0.34862L24.4244 11.3812C24.7706 11.6536 25.0001 12.1237 25.0001 12.6578Z" fill="#222222"/>
</svg>