<svg width="25" height="24" viewBox="0 0 25 24" fill="none" xmlns="http://www.w3.org/2000/svg">
<path d="M21.3071 13.5331H20.5571V14.2831V22.3753C20.5571 22.9348 20.2026 23.1468 20.0392 23.1468H15.8753C15.7118 23.1468 15.3573 22.9348 15.3573 22.3753V18.0861C15.3573 16.4073 14.1952 14.8005 12.4943 14.8005C10.7929 14.8005 9.63063 16.4072 9.63063 18.0861V22.3753C9.63063 22.9348 9.27615 23.1468 9.11269 23.1468H4.94813C4.78467 23.1468 4.43019 22.9348 4.43019 22.3753V14.2831V13.5331H3.68019H1.26793C1.13563 13.5331 0.900837 13.423 0.793552 13.0631L0.793419 13.0626C0.683307 12.6941 0.792628 12.3148 0.98756 12.1205C0.987681 12.1204 0.987802 12.1203 0.987923 12.1201L12.2132 0.985123C12.2133 0.985047 12.2134 0.984892 12.2135 0.984816C12.3905 0.809655 12.5973 0.810322 12.7731 0.984765L12.7732 0.984839L23.8962 12.0175L23.9268 12.0478L23.9606 12.0744C24.1088 12.191 24.25 12.4346 24.25 12.7615C24.25 13.3213 23.8959 13.5331 23.7321 13.5331H23.732H23.732H23.732H23.732H23.732H23.7319H23.7319H23.7319H23.7319H23.7319H23.7319H23.7319H23.7318H23.7318H23.7318H23.7318H23.7318H23.7318H23.7317H23.7317H23.7317H23.7317H23.7317H23.7317H23.7316H23.7316H23.7316H23.7316H23.7316H23.7316H23.7315H23.7315H23.7315H23.7315H23.7315H23.7315H23.7314H23.7314H23.7314H23.7314H23.7314H23.7314H23.7313H23.7313H23.7313H23.7313H23.7313H23.7313H23.7312H23.7312H23.7312H23.7312H23.7312H23.7311H23.7311H23.7311H23.7311H23.7311H23.7311H23.731H23.731H23.731H23.731H23.731H23.7309H23.7309H23.7309H23.7309H23.7309H23.7309H23.7308H23.7308H23.7308H23.7308H23.7308H23.7307H23.7307H23.7307H23.7307H23.7307H23.7306H23.7306H23.7306H23.7306H23.7306H23.7306H23.7305H23.7305H23.7305H23.7305H23.7305H23.7304H23.7304H23.7304H23.7304H23.7304H23.7303H23.7303H23.7303H23.7303H23.7303H23.7302H23.7302H23.7302H23.7302H23.7302H23.7301H23.7301H23.7301H23.7301H23.73H23.73H23.73H23.73H23.73H23.7299H23.7299H23.7299H23.7299H23.7299H23.7298H23.7298H23.7298H23.7298H23.7298H23.7297H23.7297H23.7297H23.7297H23.7297H23.7296H23.7296H23.7296H23.7296H23.7295H23.7295H23.7295H23.7295H23.7295H23.7294H23.7294H23.7294H23.7294H23.7293H23.7293H23.7293H23.7293H23.7293H23.7292H23.7292H23.7292H23.7292H23.7291H23.7291H23.7291H23.7291H23.7291H23.729H23.729H23.729H23.729H23.7289H23.7289H23.7289H23.7289H23.7288H23.7288H23.7288H23.7288H23.7288H23.7287H23.7287H23.7287H23.7287H23.7286H23.7286H23.7286H23.7286H23.7285H23.7285H23.7285H23.7285H23.7285H23.7284H23.7284H23.7284H23.7284H23.7283H23.7283H23.7283H23.7283H23.7282H23.7282H23.7282H23.7282H23.7281H23.7281H23.7281H23.7281H23.728H23.728H23.728H23.728H23.7279H23.7279H23.7279H23.7279H23.7279H23.7278H23.7278H23.7278H23.7278H23.7277H23.7277H23.7277H23.7277H23.7276H23.7276H23.7276H23.7276H23.7275H23.7275H23.7275H23.7275H23.7274H23.7274H23.7274H23.7274H23.7273H23.7273H23.7273H23.7273H23.7272H23.7272H23.7272H23.7272H23.7271H23.7271H23.7271H23.7271H23.727H23.727H23.727H23.7269H23.7269H23.7269H23.7269H23.7268H23.7268H23.7268H23.7268H23.7267H23.7267H23.7267H23.7267H23.7266H23.7266H23.7266H23.7266H23.7265H23.7265H23.7265H23.7265H23.7264H23.7264H23.7264H23.7263H23.7263H23.7263H23.7263H23.7262H23.7262H23.7262H23.7262H23.7261H23.7261H23.7261H23.7261H23.726H23.726H23.726H23.726H23.7259H23.7259H23.7259H23.7258H23.7258H23.7258H23.7258H23.7257H23.7257H23.7257H23.7257H23.7256H23.7256H23.7256H23.7255H23.7255H23.7255H23.7255H23.7254H23.7254H23.7254H23.7254H23.7253H23.7253H23.7253H23.7252H23.7252H23.7252H23.7252H23.7251H23.7251H23.7251H23.7251H23.725H23.725H23.725H23.7249H23.7249H23.7249H23.7249H23.7248H23.7248H23.7248H23.7248H23.7247H23.7247H23.7247H23.7246H23.7246H23.7246H23.7246H23.7245H23.7245H23.7245H23.7244H23.7244H23.7244H23.7244H23.7243H23.7243H23.7243H23.7242H23.7242H23.7242H23.7242H23.7241H23.7241H23.7241H23.7241H23.724H23.724H23.724H23.7239H23.7239H23.7239H23.7239H23.7238H23.7238H23.7238H23.7237H23.7237H23.7237H23.7237H23.7236H23.7236H23.7236H23.7235H23.7235H23.7235H23.7235H23.7234H23.7234H23.7234H23.7233H23.7233H23.7233H23.7233H23.7232H23.7232H23.7232H23.7231H23.7231H23.7231H23.7231H23.723H23.723H23.723H23.7229H23.7229H23.7229H23.7228H23.7228H23.7228H23.7228H23.7227H23.7227H23.7227H23.7226H23.7226H23.7226H23.7226H23.7225H23.7225H23.7225H23.7224H23.7224H23.7224H23.7224H23.7223H23.7223H23.7223H23.7222H23.7222H23.7222H23.7222H23.7221H23.7221H23.7221H23.722H23.722H23.722H23.7219H23.7219H23.7219H23.7219H23.7218H23.7218H23.7218H23.7217H23.7217H23.7217H23.7217H23.7216H23.7216H23.7216H23.7215H23.7215H23.7215H23.7214H23.7214H23.7214H23.7214H23.7213H23.7213H23.7213H23.7212H23.7212H23.7212H23.7212H23.7211H23.7211H23.7211H23.721H23.721H23.721H23.7209H23.7209H23.7209H23.7209H23.7208H23.7208H23.7208H23.7207H23.7207H23.7207H23.7206H23.7206H23.7206H23.7206H23.7205H23.7205H23.7205H23.7204H23.7204H23.7204H23.7204H23.7203H23.7203H23.7203H23.7202H23.7202H23.7202H23.7201H23.7201H23.7201H23.7201H23.72H23.72H23.72H23.7199H23.7199H23.7199H23.7198H23.7198H23.7198H23.7198H23.7197H23.7197H23.7197H23.7196H23.7196H23.7196H23.7196H23.7195H23.7195H23.7195H23.7194H23.7194H23.7194H21.3071Z" stroke="#666666" stroke-width="1.5"/>
</svg>
