<svg width="340" height="209" viewBox="0 0 340 209" fill="none" xmlns="http://www.w3.org/2000/svg">
<g clip-path="url(#clip0_107_44)">
<path d="M81.706 189.463H240.198C241.18 189.462 242.122 189.102 242.817 188.46C243.512 187.819 243.903 186.95 243.904 186.043V86.1618C243.903 85.255 243.512 84.3856 242.817 83.7444C242.122 83.1032 241.18 82.7425 240.198 82.7415H81.706C80.7234 82.7425 79.7815 83.1032 79.0867 83.7444C78.3919 84.3856 78.0011 85.255 78 86.1618V186.043C78.0011 186.95 78.3919 187.819 79.0867 188.46C79.7815 189.102 80.7234 189.462 81.706 189.463Z" fill="#0191CE" fill-opacity="0.4"/>
<path d="M81.2232 189.259H239.715C240.698 189.258 241.64 188.897 242.334 188.256C243.029 187.615 243.42 186.745 243.421 185.839V85.9574C243.42 85.0506 243.029 84.1813 242.334 83.54C241.64 82.8988 240.698 82.5381 239.715 82.5371H81.2232C80.2407 82.5381 79.2987 82.8988 78.6039 83.54C77.9091 84.1813 77.5183 85.0506 77.5172 85.9574V185.839C77.5183 186.745 77.9091 187.615 78.6039 188.256C79.2987 188.897 80.2407 189.258 81.2232 189.259ZM239.715 83.2972C240.479 83.298 241.212 83.5785 241.752 84.0772C242.293 84.5759 242.597 85.2521 242.597 85.9574V185.839C242.597 186.544 242.293 187.22 241.752 187.719C241.212 188.218 240.479 188.498 239.715 188.499H81.2232C80.459 188.498 79.7263 188.218 79.186 187.719C78.6456 187.22 78.3416 186.544 78.3408 185.839V85.9574C78.3416 85.2521 78.6456 84.5759 79.186 84.0772C79.7263 83.5785 80.459 83.298 81.2232 83.2972H239.715Z" fill="#3F3D56"/>
<path d="M142.123 188.658H178.816V132.596C178.814 131.266 178.241 129.991 177.222 129.051C176.203 128.111 174.822 127.582 173.382 127.58H147.557C146.116 127.582 144.735 128.111 143.716 129.051C142.697 129.991 142.124 131.266 142.123 132.596V188.658Z" fill="#0191CE"/>
<path d="M89.867 61.2464H110.822V28.9269C110.821 28.0201 110.43 27.1507 109.735 26.5095C109.04 25.8683 108.098 25.5076 107.116 25.5066H93.5731C92.5905 25.5076 91.6485 25.8683 90.9537 26.5095C90.259 27.1507 89.8682 28.0201 89.867 28.9269V61.2464Z" fill="#0191CE" fill-opacity="0.6"/>
<path d="M89.867 61.2464H110.822V28.9269C110.821 28.0201 110.43 27.1507 109.735 26.5095C109.04 25.8683 108.098 25.5076 107.116 25.5066H93.5731C92.5905 25.5076 91.6485 25.8683 90.9537 26.5095C90.259 27.1507 89.8682 28.0201 89.867 28.9269V61.2464ZM109.998 60.4863H90.6906V28.9269C90.6915 28.2216 90.9954 27.5454 91.5358 27.0467C92.0762 26.548 92.8088 26.2674 93.5731 26.2667H107.116C107.88 26.2674 108.613 26.548 109.153 27.0467C109.693 27.5454 109.997 28.2216 109.998 28.9269V60.4863Z" fill="#3F3D56"/>
<path d="M208.01 74.8558C185.724 74.8558 167.659 58.1829 167.659 37.6158C167.659 17.0487 185.724 0.375732 208.01 0.375732C230.295 0.375732 248.361 17.0487 248.361 37.6158C248.361 58.1829 230.295 74.8558 208.01 74.8558Z" fill="#0191CE" fill-opacity="0.6"/>
<path d="M99.7165 19.8407C103.351 19.7352 106.585 16.6764 106.611 13.3209C106.637 9.96545 103.45 6.86425 99.8181 6.71093C91.7308 6.36955 85.1096 -1.64011 86.8892 -8.92885C88.6689 -16.2176 98.3726 -20.8322 105.837 -17.9394C111.563 -15.7203 117.349 -22.7122 115.898 -28.285C114.446 -33.8578 108.955 -37.5999 103.874 -40.8952C98.7924 -44.1905 93.3569 -48.0596 92.1304 -53.6782C90.904 -59.2967 97.1823 -66.0271 102.714 -63.4227" fill="#0191CE" fill-opacity="0.8"/>
<path d="M194.314 143.865H225.309C226.545 143.864 227.73 143.41 228.605 142.603C229.479 141.796 229.971 140.703 229.972 139.561V115.979C229.97 114.838 229.479 113.744 228.605 112.937C227.73 112.13 226.545 111.677 225.309 111.675H194.314C193.077 111.677 191.892 112.13 191.018 112.937C190.144 113.744 189.652 114.838 189.651 115.979V139.561C189.652 140.702 190.144 141.796 191.018 142.603C191.892 143.41 193.077 143.864 194.314 143.865Z" fill="#0191CE"/>
<path d="M94.9124 143.865H125.907C127.144 143.864 128.329 143.41 129.203 142.603C130.077 141.796 130.569 140.703 130.571 139.561V115.979C130.569 114.838 130.077 113.744 129.203 112.937C128.329 112.13 127.144 111.677 125.907 111.675H94.9124C93.6761 111.677 92.4908 112.13 91.6166 112.937C90.7424 113.744 90.2506 114.838 90.2492 115.979V139.561C90.2506 140.703 90.7423 141.796 91.6166 142.603C92.4908 143.41 93.6761 143.864 94.9124 143.865Z" fill="#0191CE"/>
<path d="M255.254 84.5914V69.2239C255.254 68.0435 254.916 66.8839 254.274 65.8629C253.632 64.8418 252.709 63.9956 251.599 63.4098L159.081 14.6083C157.933 14.0025 156.627 13.6979 155.305 13.7276C153.982 13.7572 152.694 14.1198 151.579 14.7763L69.0382 63.3636C68.0101 63.9688 67.1638 64.8033 66.5776 65.7902C65.9913 66.777 65.684 67.8843 65.684 69.0097V84.5914C65.684 86.3676 66.4485 88.0709 67.8093 89.3268C69.1702 90.5827 71.0158 91.2883 72.9403 91.2883H247.998C249.922 91.2883 251.768 90.5827 253.129 89.3268C254.49 88.0709 255.254 86.3676 255.254 84.5914Z" fill="#0191CE"/>
<path opacity="0.2" d="M72.9403 84.4464H247.998C249.922 84.4463 251.768 83.7408 253.129 82.4849C254.49 81.229 255.254 79.5256 255.254 77.7495V83.83C255.254 85.6062 254.49 87.3095 253.129 88.5654C251.768 89.8213 249.922 90.5269 247.998 90.5269H72.9403C71.0158 90.5269 69.1701 89.8213 67.8093 88.5654C66.4485 87.3095 65.684 85.6061 65.684 83.83V77.7495C65.684 79.5256 66.4485 81.229 67.8093 82.4849C69.1701 83.7408 71.0158 84.4463 72.9403 84.4464Z" fill="black"/>
<path d="M58.7268 137.034C58.7268 125.249 48.3754 97.2849 35.6063 97.2849C22.8372 97.2849 12.4858 125.249 12.4858 137.034C12.4858 142.693 14.9217 148.12 19.2577 152.122C23.5936 156.124 29.4744 158.372 35.6063 158.372C41.7383 158.372 47.619 156.124 51.955 152.122C56.2909 148.12 58.7268 142.693 58.7268 137.034Z" fill="#0191CE" fill-opacity="0.6"/>
<path d="M35.6064 188.805C35.7156 188.805 35.8203 188.765 35.8975 188.694C35.9747 188.623 36.0181 188.526 36.0181 188.425V111.806C36.0181 111.706 35.9747 111.609 35.8975 111.538C35.8203 111.466 35.7156 111.426 35.6064 111.426C35.4971 111.426 35.3924 111.466 35.3152 111.538C35.238 111.609 35.1946 111.706 35.1946 111.806V188.425C35.1946 188.526 35.238 188.623 35.3152 188.694C35.3924 188.765 35.4971 188.805 35.6064 188.805Z" fill="#3F3D56"/>
<path d="M35.6065 145.784C35.6871 145.784 35.7659 145.762 35.8332 145.721C35.9005 145.68 35.9533 145.622 35.985 145.553C36.0167 145.485 36.026 145.409 36.0117 145.336C35.9974 145.263 35.9601 145.195 35.9045 145.141L24.1513 133.759C24.114 133.723 24.0693 133.694 24.0198 133.673C23.9704 133.653 23.9171 133.642 23.8631 133.641C23.809 133.64 23.7552 133.648 23.7048 133.666C23.6543 133.684 23.6082 133.711 23.5691 133.746C23.5299 133.78 23.4985 133.821 23.4766 133.867C23.4547 133.913 23.4428 133.962 23.4415 134.012C23.4402 134.062 23.4496 134.111 23.4691 134.158C23.4886 134.204 23.5178 134.247 23.5551 134.283L35.3083 145.666C35.3468 145.703 35.393 145.733 35.4443 145.753C35.4955 145.773 35.5507 145.784 35.6065 145.784Z" fill="#3F3D56"/>
<path d="M35.6065 126.593C35.7093 126.593 35.8085 126.557 35.8842 126.493L46.0412 117.923C46.0813 117.889 46.1138 117.848 46.1368 117.803C46.1599 117.758 46.173 117.709 46.1755 117.659C46.178 117.609 46.1698 117.559 46.1513 117.512C46.1329 117.465 46.1046 117.422 46.068 117.385C46.0315 117.348 45.9874 117.318 45.9383 117.297C45.8892 117.276 45.8361 117.264 45.782 117.262C45.7278 117.26 45.6738 117.267 45.6229 117.285C45.572 117.302 45.5253 117.328 45.4855 117.362L35.3285 125.932C35.2672 125.984 35.2243 126.052 35.2054 126.126C35.1865 126.201 35.1925 126.279 35.2225 126.35C35.2526 126.422 35.3053 126.483 35.3738 126.526C35.4424 126.57 35.5234 126.593 35.6065 126.593V126.593Z" fill="#3F3D56"/>
<path d="M340.929 113.586C340.929 96.2508 325.702 55.114 306.918 55.114C288.134 55.114 272.907 96.2508 272.907 113.586C272.907 121.911 276.49 129.895 282.869 135.782C289.247 141.668 297.898 144.976 306.918 144.976C315.938 144.976 324.589 141.668 330.968 135.782C337.346 129.895 340.929 121.911 340.929 113.586Z" fill="#0191CE"/>
<path d="M306.918 189.566C307.027 189.566 307.132 189.525 307.209 189.454C307.286 189.383 307.33 189.286 307.33 189.186V76.4757C307.33 76.3749 307.286 76.2783 307.209 76.207C307.132 76.1357 307.027 76.0957 306.918 76.0957C306.809 76.0957 306.704 76.1357 306.627 76.207C306.55 76.2783 306.506 76.3749 306.506 76.4757V189.186C306.506 189.286 306.55 189.383 306.627 189.454C306.704 189.525 306.809 189.566 306.918 189.566Z" fill="#3F3D56"/>
<path d="M306.918 126.279C306.999 126.279 307.078 126.257 307.145 126.216C307.212 126.175 307.265 126.116 307.297 126.048C307.328 125.98 307.338 125.904 307.323 125.831C307.309 125.758 307.272 125.69 307.216 125.636L289.927 108.892C289.852 108.819 289.748 108.777 289.639 108.774C289.53 108.772 289.424 108.81 289.345 108.879C289.266 108.949 289.22 109.044 289.217 109.145C289.214 109.246 289.255 109.343 289.331 109.416L306.62 126.161C306.658 126.198 306.705 126.228 306.756 126.248C306.807 126.268 306.862 126.279 306.918 126.279Z" fill="#3F3D56"/>
<path d="M306.918 98.0482C307.021 98.0483 307.12 98.0128 307.196 97.9487L322.137 85.3409C322.218 85.2729 322.266 85.1781 322.271 85.0775C322.276 84.9768 322.237 84.8784 322.163 84.804C322.09 84.7296 321.987 84.6853 321.878 84.6808C321.769 84.6763 321.662 84.712 321.582 84.78L306.64 97.3877C306.579 97.4394 306.536 97.507 306.517 97.5816C306.498 97.6562 306.504 97.7343 306.534 97.8058C306.564 97.8772 306.617 97.9385 306.686 97.9818C306.754 98.0251 306.835 98.0482 306.918 98.0482H306.918Z" fill="#3F3D56"/>
<path d="M51.7573 188.768C51.7184 188.796 51.6772 188.821 51.6378 188.848H18.1559C17.4999 186.395 17.2682 183.939 18.2482 181.806C19.6445 178.767 23.7767 176.87 27.0619 178.175C27.8402 178.493 28.5182 178.988 29.0321 179.614C30.316 177.493 32.6189 175.894 35.2772 175.896C38.6075 175.898 41.3764 178.411 42.2801 181.315C43.7352 179.048 46.6093 177.464 49.4186 178.145C54.1172 179.285 55.6014 186.026 51.7573 188.768Z" fill="#0191CE" fill-opacity="0.7"/>
<path d="M339.4 189.446C339.322 189.502 339.239 189.553 339.159 189.608H271.568C270.244 184.656 269.776 179.698 271.755 175.393C274.573 169.258 282.915 165.428 289.547 168.063C291.118 168.704 292.487 169.703 293.524 170.967C296.116 166.686 300.765 163.457 306.131 163.461C312.854 163.465 318.444 168.539 320.268 174.401C323.206 169.825 329.008 166.627 334.679 168.002C344.164 170.303 347.161 183.911 339.4 189.446Z" fill="#0191CE" fill-opacity="0.6"/>
<path d="M0.00158 188.501L350 189.112L349.998 189.872L2.17291e-05 189.261L0.00158 188.501Z" fill="#3F3D56"/>
<path d="M231.896 173.034C231.812 172.733 231.801 172.42 231.863 172.115C231.925 171.81 232.058 171.522 232.254 171.27C232.45 171.018 232.704 170.808 232.997 170.657C233.29 170.505 233.615 170.414 233.95 170.391L247.027 155.302L250.263 158.085L236.449 172.499C236.453 173.021 236.251 173.526 235.878 173.92C235.506 174.313 234.991 174.567 234.43 174.633C233.868 174.699 233.3 174.572 232.833 174.278C232.366 173.983 232.033 173.54 231.896 173.034V173.034Z" fill="#FFB8B8"/>
<path d="M244.519 157.699L248.651 160.62C248.769 160.703 248.905 160.762 249.049 160.792C249.193 160.822 249.343 160.824 249.488 160.796C249.633 160.768 249.77 160.712 249.889 160.631C250.008 160.55 250.107 160.446 250.179 160.326L252.697 156.138C253.154 155.58 253.353 154.878 253.25 154.185C253.147 153.492 252.751 152.866 252.148 152.442C251.545 152.018 250.785 151.833 250.034 151.926C249.283 152.019 248.602 152.383 248.142 152.938L244.428 156.261C244.321 156.356 244.239 156.471 244.185 156.599C244.131 156.726 244.108 156.863 244.116 156.999C244.125 157.136 244.165 157.269 244.235 157.39C244.304 157.51 244.401 157.616 244.519 157.699H244.519Z" fill="#A541F3"/>
<path d="M251.459 148.59C248.557 148.59 246.204 146.418 246.204 143.74C246.204 141.061 248.557 138.89 251.459 138.89C254.362 138.89 256.715 141.061 256.715 143.74C256.715 146.418 254.362 148.59 251.459 148.59Z" fill="#FFB8B8"/>
<path d="M240.241 206.653H237.618L237.868 202.122H241.739L240.241 206.653Z" fill="#FFB8B8"/>
<path d="M240.91 205.863L235.744 205.863H235.744C235.312 205.863 234.883 205.941 234.484 206.094C234.085 206.246 233.722 206.47 233.416 206.752C233.11 207.035 232.868 207.37 232.702 207.738C232.537 208.107 232.452 208.502 232.452 208.901V209L240.91 209L240.91 205.863Z" fill="#0E6286"/>
<path d="M268.21 203.226L265.978 204.498L263.61 200.522L266.311 198.962L268.21 203.226Z" fill="#FFB8B8"/>
<path d="M268.329 202.229L263.934 204.734L263.933 204.734C263.566 204.944 263.246 205.218 262.993 205.542C262.74 205.866 262.559 206.232 262.46 206.621C262.36 207.009 262.345 207.411 262.414 207.805C262.483 208.199 262.636 208.577 262.863 208.916L262.919 209L270.115 204.898L268.329 202.229Z" fill="#0E6286"/>
<path d="M240.431 205.325C240.626 205.325 240.816 205.27 240.976 205.167C241.137 205.065 241.26 204.92 241.329 204.752L250.818 183.814C250.838 183.763 250.873 183.718 250.92 183.684C250.966 183.651 251.021 183.629 251.08 183.623C251.139 183.616 251.198 183.624 251.252 183.647C251.306 183.67 251.352 183.705 251.385 183.751L264.42 202.702C264.548 202.879 264.74 203.007 264.961 203.064C265.183 203.121 265.419 203.103 265.627 203.012L267.411 202.244C267.639 202.145 267.816 201.967 267.904 201.748C267.992 201.53 267.984 201.288 267.882 201.075L257.202 179.104C257.435 178.581 259.71 173.205 256.215 170.549L256.191 170.535L246.714 166.633L246.475 173.342L237.03 203.588C236.994 203.702 236.983 203.821 236.999 203.939C237.014 204.057 237.054 204.17 237.117 204.273C237.181 204.376 237.266 204.467 237.368 204.539C237.469 204.611 237.586 204.664 237.71 204.694L240.184 205.295C240.264 205.315 240.347 205.325 240.431 205.325Z" fill="#0191CE"/>
<path d="M246.571 156.819C246.932 155.483 247.443 154.136 248.129 153.514C248.381 153.287 248.617 153.046 248.838 152.793C249.299 152.257 249.879 151.818 250.539 151.506C250.298 151.382 250.156 151.234 250.156 151.075C250.156 150.639 251.21 150.285 252.51 150.285C253.81 150.285 254.863 150.639 254.863 151.075C254.86 151.126 254.846 151.175 254.822 151.221C254.798 151.267 254.765 151.307 254.723 151.341C255.572 151.66 256.31 152.189 256.856 152.868C257.402 153.548 257.735 154.352 257.82 155.195C258.124 158.2 258.213 162.04 257.147 164.47C256.254 166.479 256.183 168.719 256.947 170.773C256.999 170.916 257.006 171.07 256.966 171.216C256.926 171.362 256.841 171.495 256.722 171.598C256.603 171.701 256.454 171.771 256.294 171.799C256.133 171.826 255.967 171.811 255.816 171.754L246.413 168.257C246.254 168.198 246.119 168.097 246.023 167.966C245.928 167.836 245.877 167.682 245.877 167.524V162.213C245.869 160.396 246.102 158.585 246.571 156.819Z" fill="#A541F3"/>
<path d="M264.562 178.696C264.235 178.626 263.928 178.49 263.664 178.299C263.4 178.107 263.184 177.865 263.032 177.588C262.88 177.311 262.796 177.007 262.785 176.697C262.774 176.387 262.837 176.079 262.969 175.794L255.612 157.888L259.343 156.999L266.148 174.72C266.652 174.957 267.045 175.357 267.251 175.843C267.458 176.329 267.464 176.868 267.268 177.358C267.073 177.848 266.69 178.255 266.191 178.501C265.692 178.748 265.113 178.817 264.562 178.696L264.562 178.696Z" fill="#FFB8B8"/>
<path d="M255.643 161.286L260.357 159.249C260.491 159.191 260.611 159.107 260.706 159.003C260.802 158.899 260.872 158.776 260.913 158.645C260.953 158.513 260.962 158.375 260.939 158.24C260.916 158.105 260.862 157.976 260.78 157.862L257.915 153.869C257.589 153.238 257.006 152.752 256.292 152.517C255.579 152.283 254.794 152.318 254.11 152.616C253.425 152.914 252.896 153.451 252.639 154.108C252.381 154.765 252.417 155.489 252.737 156.123L254.219 160.697C254.261 160.828 254.334 160.949 254.431 161.051C254.529 161.154 254.649 161.236 254.785 161.292C254.92 161.348 255.066 161.376 255.215 161.375C255.363 161.374 255.509 161.344 255.643 161.286Z" fill="#A541F3"/>
<path d="M246.632 142.546C246.395 142.572 246.155 142.532 245.942 142.431C245.555 142.197 245.593 141.665 245.724 141.255C246.051 140.272 246.641 139.38 247.439 138.663C248.238 137.946 249.219 137.426 250.293 137.151C251.041 136.968 251.988 136.975 252.416 137.57C253.491 136.909 254.788 136.625 256.071 136.771C257.354 136.916 258.537 137.481 259.408 138.363C260.258 139.284 260.825 140.399 261.049 141.591C261.498 143.621 263.421 147.81 262.356 149.634C261.647 150.848 258.385 149.902 257.005 150.431C256.317 150.707 255.567 150.822 254.82 150.766C254.073 150.711 253.352 150.486 252.722 150.112C252.104 149.719 251.641 149.153 251.399 148.498C251.157 147.843 251.149 147.134 251.377 146.475C251.619 145.991 251.897 145.523 252.211 145.075C252.526 144.621 252.654 144.079 252.573 143.546C252.38 142.735 248.232 142.516 246.632 142.546Z" fill="#2F2E41"/>
</g>
<defs>
<clipPath id="clip0_107_44">
<rect width="350" height="273" fill="white" transform="matrix(-1 0 0 1 350 -64)"/>
</clipPath>
</defs>
</svg>
