<svg width="30" height="31" viewBox="0 0 30 31" fill="none" xmlns="http://www.w3.org/2000/svg">
<path d="M5.89654 17.311H3.62744V19.6284H5.89654V17.311Z" fill="#0191CE"/>
<path d="M9.90584 17.311H7.63672V19.6284H9.90584V17.311Z" fill="#0191CE"/>
<path d="M5.89654 21.4912H3.62744V23.8086H5.89654V21.4912Z" fill="#0191CE"/>
<path d="M9.90584 21.4912H7.63672V23.8086H9.90584V21.4912Z" fill="#0191CE"/>
<path d="M11.0074 9.1748H8.73828V11.4922H11.0074V9.1748Z" fill="#0191CE"/>
<path d="M15.0171 9.1748H12.748V11.4922H15.0171V9.1748Z" fill="#0191CE"/>
<path d="M12.7877 12.8075H7.00306V7.86054L16.7325 4.0842V10.6061H16.6938V23.5892C16.7997 23.5093 16.9123 23.4391 17.0302 23.3794C17.3726 23.206 17.8132 23.0115 18.2776 22.8199V10.6061L18.2747 1.80078L5.46088 6.77507V12.2815H0.22998V28.8371H15.4642V28.8189C15.4642 28.7672 15.4761 28.0891 15.5267 27.2621H12.7877V12.8075ZM11.7606 27.2621H1.77216V13.8564H11.7606V27.2621Z" fill="#0191CE"/>
<path d="M29.5126 25.3395C29.4764 25.1245 29.3913 24.9212 29.2639 24.746C29.1366 24.5709 28.9707 24.4287 28.7796 24.3312C27.5049 23.6822 24.7073 22.7231 24.7073 22.7231H24.4706L23.7051 23.7662L24.4228 28.8374H29.7698C29.7504 27.6673 29.6645 26.4994 29.5126 25.3395Z" fill="#0191CE"/>
<path d="M25.6146 19.7056L25.9998 17.6777C26.051 17.2939 26.021 16.9033 25.9121 16.5323C25.8032 16.1612 25.6178 15.8183 25.3683 15.5265C25.1188 15.2347 24.8111 15.0008 24.4658 14.8405C24.1205 14.6802 23.7456 14.5972 23.3663 14.5972H22.9087C22.5294 14.5972 22.1545 14.6802 21.8092 14.8405C21.4639 15.0008 21.1562 15.2347 20.9068 15.5265C20.6573 15.8183 20.4719 16.1612 20.3629 16.5323C20.254 16.9033 20.2241 17.2939 20.2752 17.6777L20.6605 19.7056C20.7723 20.2927 21.0806 20.8218 21.5325 21.2023C21.9845 21.5827 22.5519 21.7907 23.1375 21.7907C23.7232 21.7907 24.2906 21.5827 24.7425 21.2023C25.1945 20.8218 25.5028 20.2927 25.6146 19.7056H25.6146Z" fill="#0191CE"/>
<path d="M21.5679 22.7231C21.5679 22.7231 18.7703 23.6822 17.4956 24.3312C17.3045 24.4287 17.1386 24.5709 17.0113 24.746C16.8839 24.9212 16.7988 25.1245 16.7626 25.3395C16.6107 26.4994 16.5248 27.6673 16.5054 28.8374H21.8524L22.5701 23.7662L21.8046 22.7231H21.5679Z" fill="#0191CE"/>
</svg>

