<svg width="368" height="263" viewBox="0 0 368 263" fill="none" xmlns="http://www.w3.org/2000/svg">
<path d="M73.3216 263C113.816 263 146.643 260.439 146.643 257.28C146.643 254.121 113.816 251.56 73.3216 251.56C32.8272 251.56 0 254.121 0 257.28C0 260.439 32.8272 263 73.3216 263Z" fill="#535353"/>
<path d="M56.0454 58.355C68.8056 52.7801 84.6986 56.3123 100.22 58.7638C100.364 55.795 102.115 52.1818 100.281 50.1107C98.053 47.5944 98.2581 44.9504 99.5988 42.2913C103.027 35.4914 98.1152 28.256 93.1557 22.2399C92.0378 20.8869 90.625 19.8239 89.0321 19.1371C87.4392 18.4503 85.711 18.1592 83.988 18.2873L74.8007 18.9614C72.5651 19.1254 70.4316 19.9869 68.6856 21.4305C66.9397 22.8741 65.6645 24.831 65.0309 27.0393C62.8372 30.104 61.663 33.1601 62.4023 36.2004C59.1164 38.507 58.5644 41.2913 60.0409 44.43C61.2929 46.4063 61.2796 48.33 59.9839 50.2005C58.2823 52.5853 56.9791 55.2443 56.1275 58.0687L56.0454 58.355Z" fill="#2F2E41"/>
<path d="M359.28 227.359H99.2119C96.8992 227.359 94.6811 226.415 93.0458 224.736C91.4104 223.056 90.4917 220.777 90.4917 218.402C184.766 207.147 277.269 207.147 368 218.402C368 220.777 367.081 223.056 365.446 224.736C363.81 226.415 361.592 227.359 359.28 227.359Z" fill="#2F2E41"/>
<path d="M368 218.929L90.4917 218.402L122.654 162.813L122.808 162.55V40.0395C122.808 38.5525 123.093 37.08 123.647 35.7061C124.201 34.3323 125.013 33.084 126.036 32.0325C127.06 30.981 128.275 30.147 129.613 29.578C130.95 29.009 132.384 28.7162 133.831 28.7163H323.122C324.569 28.7162 326.003 29.009 327.34 29.578C328.678 30.147 329.893 30.981 330.916 32.0325C331.94 33.084 332.752 34.3323 333.306 35.7061C333.86 37.08 334.145 38.5525 334.145 40.0395V163.393L368 218.929Z" fill="#3F3D56"/>
<path d="M133.58 36.6201C132.628 36.6212 131.715 37.0101 131.042 37.7016C130.369 38.393 129.99 39.3305 129.989 40.3084V152.012C129.99 152.99 130.369 153.927 131.042 154.619C131.715 155.31 132.628 155.699 133.58 155.7H324.912C325.864 155.699 326.776 155.31 327.45 154.619C328.123 153.927 328.501 152.99 328.502 152.012V40.3084C328.501 39.3305 328.123 38.3931 327.45 37.7016C326.776 37.0102 325.864 36.6212 324.912 36.6201H133.58Z" fill="white"/>
<path d="M134.382 170.454C134.088 170.454 133.8 170.541 133.552 170.704C133.304 170.867 133.107 171.099 132.984 171.374L123.074 193.504C122.966 193.744 122.918 194.009 122.936 194.274C122.954 194.538 123.036 194.794 123.176 195.017C123.315 195.24 123.507 195.424 123.733 195.551C123.959 195.678 124.213 195.745 124.471 195.745H332.877C333.14 195.745 333.398 195.676 333.627 195.545C333.856 195.414 334.048 195.225 334.186 194.995C334.324 194.766 334.403 194.504 334.414 194.235C334.426 193.966 334.371 193.698 334.253 193.457L323.481 171.327C323.354 171.064 323.158 170.843 322.915 170.689C322.672 170.534 322.391 170.453 322.105 170.454H134.382Z" fill="#2F2E41"/>
<path d="M228.476 34.7754C229.751 34.7754 230.785 33.7138 230.785 32.4043C230.785 31.0948 229.751 30.0332 228.476 30.0332C227.201 30.0332 226.168 31.0948 226.168 32.4043C226.168 33.7138 227.201 34.7754 228.476 34.7754Z" fill="white"/>
<path d="M207.992 199.96C207.654 199.961 207.325 200.075 207.056 200.287C206.788 200.498 206.595 200.794 206.506 201.13L204.02 210.614C203.959 210.848 203.951 211.094 203.997 211.332C204.042 211.57 204.141 211.794 204.285 211.987C204.428 212.179 204.613 212.335 204.825 212.443C205.037 212.55 205.27 212.606 205.506 212.606H252.782C253.027 212.606 253.269 212.546 253.487 212.43C253.705 212.315 253.893 212.147 254.035 211.942C254.177 211.737 254.27 211.499 254.305 211.25C254.339 211.001 254.316 210.746 254.235 210.508L251.039 201.024C250.935 200.713 250.738 200.444 250.478 200.253C250.217 200.063 249.905 199.96 249.585 199.96H207.992Z" fill="#2F2E41"/>
<path d="M334.145 160.706V162.813H122.654L122.813 162.55V160.706H334.145Z" fill="#2F2E41"/>
<path d="M328.246 73.7666C348.077 73.7666 364.153 57.2534 364.153 36.8833C364.153 16.5132 348.077 0 328.246 0C308.415 0 292.339 16.5132 292.339 36.8833C292.339 57.2534 308.415 73.7666 328.246 73.7666Z" fill="#0191CE"/>
<path d="M343.121 52.9538H313.37C312.826 52.9533 312.305 52.731 311.92 52.3359C311.535 51.9408 311.319 51.405 311.318 50.8462V32.4045C311.319 31.8457 311.535 31.31 311.92 30.9149C312.305 30.5198 312.826 30.2975 313.37 30.2969H343.121C343.665 30.2975 344.187 30.5198 344.572 30.9149C344.956 31.31 345.173 31.8457 345.173 32.4045V50.8462C345.173 51.405 344.956 51.9408 344.572 52.3359C344.187 52.731 343.666 52.9533 343.121 52.9538ZM313.37 32.4045V50.8462H343.123L343.121 32.4045H313.37Z" fill="white"/>
<path d="M337.479 32.4046H319.013V23.9741C319.013 17.8679 322.896 13.436 328.246 13.436C333.596 13.436 337.479 17.8679 337.479 23.9741V32.4046ZM321.065 30.297H335.427V23.9741C335.427 19.0105 332.474 15.5437 328.246 15.5437C324.018 15.5437 321.065 19.0105 321.065 23.9741V30.297Z" fill="white"/>
<path d="M328.246 43.2064C329.379 43.2064 330.298 42.2628 330.298 41.0988C330.298 39.9348 329.379 38.9912 328.246 38.9912C327.113 38.9912 326.194 39.9348 326.194 41.0988C326.194 42.2628 327.113 43.2064 328.246 43.2064Z" fill="white"/>
<path d="M303.18 117.811H155.312C154.586 117.811 153.89 117.514 153.377 116.987C152.863 116.459 152.575 115.744 152.574 114.999V77.3211C152.575 76.5754 152.863 75.8605 153.377 75.3332C153.89 74.8058 154.586 74.5092 155.312 74.5083H303.18C303.906 74.5092 304.602 74.8058 305.116 75.3332C305.629 75.8605 305.918 76.5754 305.918 77.3211V114.999C305.918 115.744 305.629 116.459 305.116 116.987C304.602 117.514 303.906 117.811 303.18 117.811ZM155.312 75.6335C154.876 75.634 154.459 75.8119 154.151 76.1283C153.843 76.4447 153.67 76.8737 153.669 77.3211V114.999C153.67 115.446 153.843 115.875 154.151 116.191C154.459 116.508 154.876 116.686 155.312 116.686H303.18C303.616 116.686 304.033 116.508 304.341 116.191C304.649 115.875 304.823 115.446 304.823 114.999V77.3211C304.823 76.8737 304.649 76.4447 304.341 76.1283C304.033 75.8119 303.616 75.6339 303.18 75.6335H155.312Z" fill="#9B9797"/>
<path d="M178.288 106.172C184.448 106.172 189.442 101.042 189.442 94.7145C189.442 88.3866 184.448 83.2568 178.288 83.2568C172.127 83.2568 167.133 88.3866 167.133 94.7145C167.133 101.042 172.127 106.172 178.288 106.172Z" fill="#9B9797"/>
<path d="M204.049 87.0757C203.805 87.0753 203.563 87.1244 203.337 87.2202C203.111 87.316 202.906 87.4566 202.733 87.634C202.56 87.8113 202.422 88.022 202.329 88.2539C202.235 88.4858 202.187 88.7343 202.187 88.9853C202.187 89.2364 202.235 89.4849 202.329 89.7168C202.422 89.9487 202.56 90.1594 202.733 90.3367C202.906 90.5141 203.111 90.6547 203.337 90.7505C203.563 90.8463 203.805 90.8954 204.049 90.895H291.69C292.183 90.895 292.656 90.6938 293.005 90.3356C293.354 89.9775 293.549 89.4918 293.549 88.9853C293.549 88.4789 293.354 87.9932 293.005 87.635C292.656 87.2769 292.183 87.0757 291.69 87.0757H204.049Z" fill="#9B9797"/>
<path d="M204.049 98.5337C203.556 98.5337 203.083 98.7349 202.734 99.093C202.386 99.4511 202.19 99.9369 202.19 100.443C202.19 100.95 202.386 101.436 202.734 101.794C203.083 102.152 203.556 102.353 204.049 102.353H241.761C242.254 102.353 242.727 102.152 243.076 101.794C243.424 101.436 243.62 100.95 243.62 100.443C243.62 99.9369 243.424 99.4511 243.076 99.093C242.727 98.7349 242.254 98.5337 241.761 98.5337H204.049Z" fill="#9B9797"/>
<path d="M122.29 99.3061L94.9554 114.234L94.6094 101.794C103.531 100.264 112.019 97.6005 119.868 93.2641L122.727 86.0089C123.038 85.2184 123.545 84.5246 124.196 83.9958C124.847 83.4669 125.621 83.1211 126.442 82.9924C127.263 82.8637 128.102 82.9564 128.878 83.2614C129.653 83.5665 130.338 84.0734 130.865 84.7325C131.636 85.6967 132.021 86.9259 131.943 88.1711C131.865 89.4164 131.329 90.5845 130.443 91.4388L122.29 99.3061Z" fill="#FFB8B8"/>
<path d="M55.5007 185.492C55.3013 184.741 55.2589 183.955 55.3765 183.186C55.494 182.417 55.7687 181.682 56.1825 181.029L62.1872 171.563C63.6074 169.324 65.7866 167.707 68.3021 167.026C70.8175 166.344 73.4897 166.646 75.8004 167.874C73.2768 172.287 73.6286 176.157 76.6719 179.521C71.9475 181.89 67.5811 184.948 63.7079 188.6C63.0008 189.095 62.1888 189.409 61.3394 189.517C60.4901 189.624 59.628 189.522 58.825 189.218C58.0221 188.914 57.3015 188.417 56.7232 187.769C56.145 187.121 55.7258 186.34 55.5007 185.492Z" fill="#2F2E41"/>
<path d="M123.535 173.116C122.627 174.671 121.344 175.961 119.81 176.861C118.277 177.76 116.544 178.24 114.778 178.254L74.8872 178.564L73.1572 168.257L90.8036 162.926L75.9253 151.197L92.1876 131.649L121.725 159.928C123.451 161.581 124.573 163.792 124.903 166.193C125.232 168.593 124.749 171.037 123.535 173.116Z" fill="#2F2E41"/>
<path d="M68.6589 243.605H59.3167C50.9288 184.546 42.3906 125.321 67.6209 103.216L97.3775 108.191L93.5714 134.137L76.9631 153.685L68.6589 243.605Z" fill="#2F2E41"/>
<path d="M76.8712 256.984C76.1399 257.189 75.3746 257.233 74.6257 257.112C73.8768 256.992 73.1613 256.709 72.5262 256.284L62.3825 254.884C60.2028 253.425 58.6283 251.187 57.9645 248.603C57.3007 246.019 57.595 243.274 58.7902 240.901C63.0859 243.493 66.8542 243.131 70.1288 240.005C72.4426 244.804 76.2548 244.511 79.8957 248.554C80.3778 249.28 80.6839 250.114 80.7886 250.987C80.8934 251.859 80.7936 252.745 80.4977 253.569C80.2018 254.394 79.7183 255.135 79.0875 255.729C78.4567 256.323 77.6969 256.753 76.8712 256.984Z" fill="#2F2E41"/>
<path d="M90.8033 63.7645L73.5029 59.4995C76.3762 53.4581 76.6129 46.7358 75.2329 39.5961L86.9972 39.2407C87.3658 48.1191 88.481 56.4137 90.8033 63.7645Z" fill="#FFB8B8"/>
<path d="M95.558 118.893C82.9639 127.708 74.0654 119.194 67.2747 106.059C68.2183 98.0213 66.6905 88.4024 63.8608 77.9509C62.6023 73.341 63.0721 68.414 65.1775 64.1425C67.2829 59.8711 70.8708 56.5657 75.2329 54.8789L90.1112 61.2764C102.745 71.8542 105.231 83.312 100.491 95.3965L95.558 118.893Z" fill="white"/>
<path d="M59.3167 72.6497L45.4765 80.1135L70.043 95.041L73.4612 103.702C73.6894 104.28 73.8005 104.9 73.7879 105.524C73.7753 106.147 73.6391 106.762 73.3877 107.329C73.1363 107.897 72.775 108.407 72.3258 108.826C71.8765 109.246 71.3488 109.567 70.7747 109.771C70.1221 110.002 69.4263 110.075 68.7417 109.983C68.0571 109.892 67.4024 109.64 66.8288 109.245C66.2552 108.851 65.7783 108.325 65.4355 107.71C65.0926 107.094 64.8931 106.406 64.8525 105.698L64.5069 99.6615L33.2831 89.0774C32.2311 88.7208 31.2719 88.123 30.4781 87.3292C29.6844 86.5354 29.0768 85.5665 28.7016 84.4958C28.1546 82.9351 28.1268 81.2323 28.6224 79.6536C29.1181 78.075 30.1092 76.7096 31.4408 75.7713L56.5487 58.0776L59.3167 72.6497Z" fill="#FFB8B8"/>
<path d="M73.157 74.0717C67.3848 71.4732 62.1359 74.2959 55.5107 76.5596L54.4727 57.7225C61.0512 54.1208 67.3235 53.1498 73.1571 55.9454L73.157 74.0717Z" fill="white"/>
<path d="M80.0622 48.5714C86.1626 48.5714 91.1078 43.4916 91.1078 37.2254C91.1078 30.9591 86.1626 25.8794 80.0622 25.8794C73.9619 25.8794 69.0166 30.9591 69.0166 37.2254C69.0166 43.4916 73.9619 48.5714 80.0622 48.5714Z" fill="#FFB8B8"/>
<path d="M93.2763 35.7936C82.3402 36.8939 74.007 35.0567 68.6812 29.8256V25.6128H92.3482L93.2763 35.7936Z" fill="#2F2E41"/>
</svg>