<svg width="316" height="312" viewBox="0 0 316 312" fill="none" xmlns="http://www.w3.org/2000/svg">
<path d="M283.526 311.317H0.335938V86.6769C0.335938 38.883 50.6291 0 112.448 0H171.414C233.232 0 283.526 38.883 283.526 86.6769V311.317Z" fill="#929292"/>
<path d="M224.56 311.317H0.336317V86.677C0.274424 68.3635 7.77528 50.5128 21.7468 35.724C22.2618 35.1813 22.7755 34.6456 23.3053 34.1157C30.0632 27.2632 38.1054 21.2283 47.1663 16.2101C47.6781 15.9222 48.192 15.6393 48.7135 15.3564C56.2954 11.2999 64.497 7.98382 73.1315 5.4836C73.6443 5.33335 74.1663 5.1828 74.6884 5.0384C82.4976 2.88382 90.5927 1.40794 98.8242 0.638015C99.3345 0.584119 99.8584 0.541945 100.382 0.49977C108.404 -0.163335 116.494 -0.163335 124.516 0.49977C125.038 0.541945 125.562 0.584114 126.079 0.638592C134.308 1.40857 142.401 2.88426 150.208 5.03842C150.73 5.18282 151.253 5.33336 151.767 5.48391C160.295 7.95259 168.4 11.2192 175.901 15.2108C176.422 15.4876 176.944 15.7705 177.458 16.0535C182.537 18.8564 187.307 21.979 191.721 25.3894C195.26 28.1249 198.558 31.0408 201.593 34.1175C202.121 34.6456 202.635 35.1813 203.149 35.7231C217.121 50.5121 224.622 68.3631 224.56 86.677V311.317Z" fill="#4A4A4A"/>
<path d="M206.327 210.844C213.183 210.844 218.741 206.547 218.741 201.246C218.741 195.946 213.183 191.649 206.327 191.649C199.471 191.649 193.914 195.946 193.914 201.246C193.914 206.547 199.471 210.844 206.327 210.844Z" fill="#0191CE"/>
<path d="M260.327 304.589H250.815L246.289 276.223L260.328 276.224L260.327 304.589Z" fill="#FFB8B8"/>
<path d="M244.02 302.487H262.365V311.417H232.47C232.47 310.244 232.769 309.083 233.349 308C233.93 306.916 234.781 305.932 235.853 305.103C236.926 304.274 238.199 303.616 239.6 303.167C241.002 302.718 242.504 302.487 244.02 302.487V302.487Z" fill="#2F2E41"/>
<path d="M307.654 304.589H298.142L293.617 276.223L307.656 276.224L307.654 304.589Z" fill="#FFB8B8"/>
<path d="M291.348 302.487H309.692V311.417H279.798C279.798 310.244 280.097 309.083 280.677 308C281.258 306.916 282.108 305.932 283.181 305.103C284.253 304.274 285.527 303.616 286.928 303.167C288.329 302.718 289.831 302.487 291.348 302.487V302.487Z" fill="#2F2E41"/>
<path d="M212.61 203.148C211.926 202.368 211.471 201.482 211.278 200.552C211.084 199.622 211.157 198.67 211.49 197.764C211.824 196.858 212.411 196.02 213.209 195.308C214.007 194.596 214.997 194.028 216.11 193.644L248.445 124.743L264.355 131.456L227.436 197.301C228.146 198.789 228.126 200.426 227.379 201.903C226.632 203.381 225.21 204.595 223.382 205.315C221.555 206.036 219.449 206.213 217.464 205.814C215.478 205.414 213.751 204.466 212.61 203.148V203.148Z" fill="#FFB8B8"/>
<path d="M302.796 216.095C301.739 215.626 300.827 214.984 300.126 214.214C299.424 213.443 298.95 212.563 298.736 211.636C298.522 210.709 298.574 209.756 298.887 208.846C299.201 207.936 299.769 207.089 300.551 206.367L290.534 133.481L308.641 134.121L312.804 205.814C314.286 206.91 315.197 208.389 315.363 209.97C315.53 211.551 314.94 213.124 313.706 214.391C312.473 215.658 310.681 216.532 308.67 216.846C306.659 217.16 304.569 216.892 302.796 216.095V216.095Z" fill="#FFB8B8"/>
<path d="M273.909 111.98C284.434 111.98 292.965 105.384 292.965 97.2476C292.965 89.1109 284.434 82.5149 273.909 82.5149C263.385 82.5149 254.854 89.1109 254.854 97.2476C254.854 105.384 263.385 111.98 273.909 111.98Z" fill="#FFB8B8"/>
<path d="M302.674 199.518H245.224L245.293 199.172C245.396 198.656 255.532 147.323 248.056 130.529C247.306 128.879 247.372 127.072 248.241 125.457C249.111 123.842 250.722 122.533 252.765 121.781H252.765C263.45 117.891 283.961 113.101 301.272 124.726C303.82 126.465 305.809 128.638 307.083 131.074C308.357 133.509 308.88 136.141 308.612 138.76L302.674 199.518Z" fill="#0191CE"/>
<path d="M256.258 154.909L230.393 150.852L242.517 128.64C243.242 126.489 245.042 124.648 247.521 123.521C250 122.394 252.956 122.073 255.74 122.629C258.524 123.185 260.91 124.572 262.374 126.485C263.837 128.399 264.259 130.684 263.547 132.838L256.258 154.909Z" fill="#0191CE"/>
<path d="M289.384 162.442L287.829 134.884C286.65 129.704 290.486 124.807 296.385 124.006C302.286 123.209 308.047 126.801 309.232 132.02L315.076 157.77L289.384 162.442Z" fill="#0191CE"/>
<path d="M300.763 196.219C310.007 223.438 311.015 258.044 308.521 295.792L296.107 294.593L273.607 222.612L261.194 295.792L247.228 295.193C243.056 255.585 238.994 221.583 245.676 199.218L300.763 196.219Z" fill="#2F2E41"/>
<path d="M286.466 108.633C282.911 111.561 276.309 109.989 275.846 105.99C275.809 105.679 275.812 105.367 275.853 105.057C276.093 103.285 277.416 101.677 277.099 99.8059C277.028 99.3403 276.803 98.8966 276.448 98.5169C273.615 95.5841 266.965 99.8287 264.291 97.1737C262.652 95.5457 264.579 92.9825 263.321 91.1629C261.661 88.7614 256.743 89.9461 253.658 88.6309C250.227 87.1676 250.432 83.0973 252.691 80.6215C255.446 77.6021 260.276 75.991 265.045 75.7588C269.815 75.5266 274.552 76.5234 279.005 77.8651C284.064 79.3895 289.082 81.4962 292.195 84.9357C295.981 89.1185 296.346 94.7419 294.452 99.6329C293.3 102.608 289.369 106.243 286.466 108.633Z" fill="#2F2E41"/>
<path d="M162.879 246.234H62.0172C60.6889 246.24 59.412 245.838 58.4665 245.116C57.5211 244.395 56.9844 243.413 56.9741 242.386V68.3309C56.9844 67.3039 57.5211 66.322 58.4665 65.6006C59.412 64.8792 60.6889 64.4772 62.0172 64.4827H162.879C164.208 64.4772 165.485 64.8792 166.43 65.6006C167.375 66.322 167.912 67.3039 167.922 68.3309V242.386C167.912 243.413 167.375 244.395 166.43 245.116C165.485 245.838 164.208 246.24 162.879 246.234V246.234Z" fill="#5E8AAA"/>
<path d="M167.922 120.802H56.9741V122.001H167.922V120.802Z" fill="#CCCCCC"/>
<path d="M168.311 189.25H57.3623V190.449H168.311V189.25Z" fill="#CCCCCC"/>
<path d="M93.4394 64.4829H91.8877V246.834H93.4394V64.4829Z" fill="#CCCCCC"/>
<path d="M132.233 64.4829H130.681V246.834H132.233V64.4829Z" fill="#CCCCCC"/>
</svg>
