<svg width="25" height="23" viewBox="0 0 25 23" fill="none" xmlns="http://www.w3.org/2000/svg">
<path d="M15 1V2.84615C15 4.50301 16.3431 5.84615 18 5.84615H22M15 1L22 5.84615M15 1H4C2.34315 1 1 2.34315 1 4V19C1 20.6569 2.34315 22 4 22H19C20.6569 22 22 20.6569 22 19V5.84615" stroke="#666666" stroke-miterlimit="10" stroke-linecap="round" stroke-linejoin="round"/>
<path d="M13.3333 10.5862H16.9047" stroke="#666666" stroke-miterlimit="10" stroke-linecap="round" stroke-linejoin="round"/>
<path d="M13.3333 13.7585H16.9047" stroke="#666666" stroke-miterlimit="10" stroke-linecap="round" stroke-linejoin="round"/>
<path d="M10.9524 16.9309H16.9048" stroke="#666666" stroke-miterlimit="10" stroke-linecap="round" stroke-linejoin="round"/>
<path d="M7.38092 9V9.7931" stroke="#666666" stroke-width="1.5" stroke-miterlimit="10" stroke-linecap="round" stroke-linejoin="round"/>
<path d="M7.38092 14.5515V15.3446" stroke="#666666" stroke-width="1.5" stroke-miterlimit="10" stroke-linecap="round" stroke-linejoin="round"/>
<path d="M8.57143 9.79297H6.78571C5.83333 9.79297 5 10.3481 5 10.9826C5 11.6171 5.83333 12.1723 6.78571 12.1723H7.97619C8.92857 12.1723 9.7619 12.7275 9.7619 13.3619C9.7619 13.9964 8.92857 14.5516 7.97619 14.5516H6.19048" stroke="#666666" stroke-width="1.5" stroke-miterlimit="10" stroke-linecap="round" stroke-linejoin="round"/>
</svg>
