<svg width="25" height="23" viewBox="0 0 25 23" fill="none" xmlns="http://www.w3.org/2000/svg">
<path d="M19.25 7H14.3C13.64 7 13.2 6.7 13.2 6.25V2C13.2 1.44772 12.7523 1 12.2 1H4.4C3.3 1 0 1 0 3.29048V19.75C0 22 3.74 22 4.4 22H18.7C19.36 22 22 22 22 19.75V8.875C22 7.825 20.79 7 19.25 7ZM9.59551 14.2639C9.15131 14.4505 8.77908 14.9376 8.33798 15.1314C8.16397 15.2078 7.94745 15.25 7.7 15.25C7.52301 15.25 7.36183 15.2284 7.22073 15.1882C6.68963 15.0367 6.05873 14.5872 5.67696 14.1881C5.56296 14.069 5.5 13.9202 5.5 13.75C5.5 13.3 5.94 13 6.6 13H8.25C8.58 13 8.8 12.85 8.8 12.625C8.8 12.4 8.58 12.25 8.25 12.25H7.15C5.61 12.25 4.4 11.425 4.4 10.375C4.4 9.49352 5.34967 8.75594 6.52557 8.58502C6.56796 8.57886 6.6 8.54284 6.6 8.5V8.5C6.6 8.05 7.04 7.75 7.7 7.75C7.87699 7.75 8.03817 7.77157 8.17927 7.81183C8.71037 7.96335 9.34128 8.41277 9.72305 8.81185C9.83705 8.93103 9.9 9.07978 9.9 9.25C9.9 9.7 9.46 10 8.8 10H7.15C6.82 10 6.6 10.15 6.6 10.375C6.6 10.6 6.82 10.75 7.15 10.75H8.25C9.79 10.75 11 11.575 11 12.625C11 13.3166 10.4154 13.9197 9.59551 14.2639ZM16.5 16.75H11C10.34 16.75 9.9 16.45 9.9 16C9.9 15.55 10.34 15.25 11 15.25H16.5C17.16 15.25 17.6 15.55 17.6 16C17.6 16.45 17.16 16.75 16.5 16.75ZM16.5 13.75H13.2C12.54 13.75 12.1 13.45 12.1 13C12.1 12.55 12.54 12.25 13.2 12.25H16.5C17.16 12.25 17.6 12.55 17.6 13C17.6 13.45 17.16 13.75 16.5 13.75ZM16.5 10.75H13.2C12.54 10.75 12.1 10.45 12.1 10C12.1 9.55 12.54 9.25 13.2 9.25H16.5C17.16 9.25 17.6 9.55 17.6 10C17.6 10.45 17.16 10.75 16.5 10.75Z" fill="#222222"/>
<path d="M16.1131 1C16.1131 1 15.6606 3.82352 16.5656 4.54751C17.4706 5.27149 21 4.9095 21 4.9095L16.1131 1Z" fill="#222222"/>
</svg>
