<svg width="80" height="83" viewBox="0 0 80 74" fill="none" xmlns="http://www.w3.org/2000/svg">
<g clip-path="url(#clip0_107_101)">
<path d="M63.3333 27.5537C63.3333 15.7178 52.8867 6.12305 40 6.12305C27.1133 6.12305 16.6667 15.7178 16.6667 27.5537C16.6667 31.8 18.0333 35.7493 20.35 39.0803H20.3233C28.19 50.3926 40 67.3534 40 67.3534L59.6767 39.0803H59.6533C61.9667 35.7493 63.3333 31.8 63.3333 27.5537ZM40 36.7382C34.4767 36.7382 30 32.6266 30 27.5537C30 22.4807 34.4767 18.3691 40 18.3691C45.5233 18.3691 50 22.4807 50 27.5537C50 32.6266 45.5233 36.7382 40 36.7382Z" fill="white"/>
</g>
<defs>
<clipPath id="clip0_107_101">
<rect width="80" height="73.4764" fill="white"/>
</clipPath>
</defs>
</svg>
