<svg width="26" height="29" viewBox="0 0 26 29" fill="none" xmlns="http://www.w3.org/2000/svg">
<path d="M13.7527 2.64448H23.9089L23.9089 27.2428H13.7527C13.3214 27.2428 12.9715 27.6364 12.9715 28.1213C12.9715 28.6062 13.3215 28.9998 13.7527 28.9998H24.6902C25.1214 28.9998 25.4714 28.6062 25.4714 28.1213L25.4714 1.76599C25.4714 1.28103 25.1214 0.887503 24.6902 0.887503H13.7528C13.3215 0.887503 12.9715 1.28111 12.9715 1.76599C12.9715 2.25095 13.3215 2.64448 13.7527 2.64448Z" fill="#FF4646"/>
<path d="M0.698099 15.557L6.08869 21.7056C6.39417 22.0527 6.88869 22.0518 7.19338 21.7056C7.49886 21.3595 7.49886 20.7973 7.19338 20.4512L3.13087 15.817L19.2191 15.817C19.6503 15.817 20.0003 15.4199 20.0003 14.9297C20.0003 14.4395 19.6503 14.0424 19.2191 14.0424L3.13087 14.0424L7.19338 9.40822C7.49886 9.0612 7.49886 8.49986 7.19338 8.15373C6.88791 7.80671 6.39339 7.80671 6.08869 8.15373L0.698879 14.3024C0.397299 14.6442 0.394182 15.2161 0.698099 15.557Z" fill="#FF4646"/>
</svg>
