<svg width="35" height="35" viewBox="0 0 35 35" fill="none" xmlns="http://www.w3.org/2000/svg">
<path d="M16.8303 1.22618C9.24702 3.26785 2.46577 9.31993 0.715766 15.6637C-1.7634 24.6324 7.78868 30.8303 18.5074 27.2574C22.372 25.872 22.6637 25.872 22.6637 27.0387C22.6637 27.7678 22.1533 29.5178 21.5699 30.9762C18.7262 37.7574 25.4345 29.8824 31.122 19.8199C33.747 15.0804 34.5491 12.8929 34.5491 10.4866C34.5491 2.90327 26.3824 -1.39882 16.8303 1.22618ZM28.9345 3.77827C35.5699 7.8616 33.1637 17.7783 24.1949 23.1741C16.8303 27.622 8.80952 27.8408 4.72618 23.7574C-5.11757 13.9137 16.4658 -3.9509 28.9345 3.77827Z" fill="#0191CE"/>
<path d="M16.0283 3.99701C10.1949 6.1116 4.94493 10.7053 4.28868 14.2783C4.06993 15.5908 4.50743 15.7366 9.17409 15.9554C14.2783 16.1741 16.8303 17.3408 16.8303 19.4554C16.8303 22.0074 9.53868 23.8304 7.49701 21.7887C6.84076 21.1324 6.62201 21.2054 6.62201 22.0804C6.62201 24.4137 8.59076 25.0699 14.497 24.7054C22.1533 24.2679 27.622 21.2054 30.3928 15.9554C32.0699 12.6741 31.7783 12.4553 25.3616 12.4553C21.5699 12.4553 18.872 12.0908 18.1428 11.5074C14.1324 8.2991 17.997 4.58035 25.5074 4.3616C27.1845 4.3616 27.2574 4.28868 25.9449 3.70535C23.7574 2.75743 19.0178 2.90326 16.0283 3.99701Z" fill="#0191CE"/>
</svg>
