<svg xmlns="http://www.w3.org/2000/svg" version="1.0" width="48" height="48" preserveAspectRatio="xMidYMid meet"><rect id="backgroundrect" width="100%" height="100%" x="0" y="0" fill="none" stroke="none"/>


<g class="currentLayer" style=""><title>Layer 1</title><g transform="translate(0,48) scale(0.10000000149011612,-0.10000000149011612) " fill="#ffffff" stroke="none" id="svg_1" class="" fill-opacity="1">
<path d="M229.85478800535202,463.1836735010147 c-104,-28 -197,-111 -221,-198 c-34,-123 97,-208 244,-159 c53,19 57,19 57,3 c0,-10 -7,-34 -15,-54 c-39,-93 53,15 131,153 c36,65 47,95 47,128 c0,104 -112,163 -243,127 zm166,-35 c91,-56 58,-192 -65,-266 c-101,-61 -211,-64 -267,-8 c-135,135 161,380 332,274 z" id="svg_2" fill="#ffffff" fill-opacity="1"/>
<path d="M218.85478800535202,425.1836735010147 c-80,-29 -152,-92 -161,-141 c-3,-18 3,-20 67,-23 c70,-3 105,-19 105,-48 c0,-35 -100,-60 -128,-32 c-9,9 -12,8 -12,-4 c0,-32 27,-41 108,-36 c105,6 180,48 218,120 c23,45 19,48 -69,48 c-52,0 -89,5 -99,13 c-55,44 -2,95 101,98 c23,0 24,1 6,9 c-30,13 -95,11 -136,-4 z" id="svg_3" fill="#ffffff" fill-opacity="1"/>
</g></g></svg>