<svg width="35" height="35" viewBox="0 0 55 55" fill="none" xmlns="http://www.w3.org/2000/svg">
<path d="M27.5 17.1875C29.3985 17.1875 30.9375 15.6485 30.9375 13.75C30.9375 11.8515 29.3985 10.3125 27.5 10.3125C25.6015 10.3125 24.0625 11.8515 24.0625 13.75C24.0625 15.6485 25.6015 17.1875 27.5 17.1875Z" fill="#222222"/>
<path d="M27.5 30.9375C29.3985 30.9375 30.9375 29.3985 30.9375 27.5C30.9375 25.6015 29.3985 24.0625 27.5 24.0625C25.6015 24.0625 24.0625 25.6015 24.0625 27.5C24.0625 29.3985 25.6015 30.9375 27.5 30.9375Z" fill="#222222"/>
<path d="M27.5 44.6875C29.3985 44.6875 30.9375 43.1485 30.9375 41.25C30.9375 39.3515 29.3985 37.8125 27.5 37.8125C25.6015 37.8125 24.0625 39.3515 24.0625 41.25C24.0625 43.1485 25.6015 44.6875 27.5 44.6875Z" fill="#222222"/>
</svg>
