<svg xmlns="http://www.w3.org/2000/svg" xmlns:xlink="http://www.w3.org/1999/xlink" version="1.1" style="" xml:space="preserve" width="203.096" height="203.096"><rect id="backgroundrect" width="100%" height="100%" x="0" y="0" fill="none" stroke="none"/>
















<g class="currentLayer" style=""><title>Layer 1</title><g id="svg_1" class="selected" fill-opacity="1" fill="#848484" stroke="#848484" stroke-opacity="1" stroke-width="6">
	<path d="M153.976,73.236h-3.308V49.115C150.669,22.033,128.634,0,101.549,0C74.465,0,52.43,22.033,52.43,49.115v24.121H49.12   c-9.649,0-17.5,7.851-17.5,17.5v94.859c0,9.649,7.851,17.5,17.5,17.5h104.856c9.649,0,17.5-7.851,17.5-17.5V90.736   C171.476,81.087,163.626,73.236,153.976,73.236z M67.43,49.115C67.43,30.304,82.736,15,101.549,15   c18.813,0,34.119,15.304,34.119,34.115v24.121H67.43V49.115z M156.476,185.596c0,1.355-1.145,2.5-2.5,2.5H49.12   c-1.355,0-2.5-1.145-2.5-2.5V90.736c0-1.355,1.145-2.5,2.5-2.5H59.93h83.238h10.808c1.355,0,2.5,1.145,2.5,2.5V185.596z" id="svg_2" fill="#848484" stroke="#848484" stroke-opacity="1" stroke-width="6"/>
	<path d="M101.547,116.309c-4.142,0-7.5,3.357-7.5,7.5v28.715c0,4.143,3.358,7.5,7.5,7.5c4.142,0,7.5-3.357,7.5-7.5v-28.715   C109.047,119.666,105.689,116.309,101.547,116.309z" id="svg_3" fill="#848484" stroke="#848484" stroke-opacity="1" stroke-width="6"/>
</g><g id="svg_4">
</g><g id="svg_5">
</g><g id="svg_6">
</g><g id="svg_7">
</g><g id="svg_8">
</g><g id="svg_9">
</g><g id="svg_10">
</g><g id="svg_11">
</g><g id="svg_12">
</g><g id="svg_13">
</g><g id="svg_14">
</g><g id="svg_15">
</g><g id="svg_16">
</g><g id="svg_17">
</g><g id="svg_18">
</g></g></svg>