<svg width="30" height="30" viewBox="0 0 45 45" fill="none" xmlns="http://www.w3.org/2000/svg">
<g clip-path="url(#clip0_107_122)">
<rect width="45" height="45" rx="22.5" fill="#0191CE"/>
<g clip-path="url(#clip1_107_122)">
<path d="M22.6033 26.4375C24.3555 26.4375 26.0684 25.8746 27.5253 24.82C28.9822 23.7654 30.1178 22.2665 30.7883 20.5127C31.4589 18.759 31.6343 16.8292 31.2925 14.9674C30.9506 13.1057 30.1068 11.3955 28.8678 10.0533C27.6288 8.71102 26.0502 7.79694 24.3317 7.42661C22.6131 7.05628 20.8318 7.24635 19.213 7.97277C17.5941 8.69919 16.2105 9.92935 15.237 11.5077C14.2635 13.086 13.7439 14.9416 13.7439 16.8398C13.7439 19.3853 14.6773 21.8265 16.3388 23.6264C18.0002 25.4263 20.2537 26.4375 22.6033 26.4375ZM22.6033 9.98438C23.8549 9.98438 25.0784 10.3864 26.119 11.1397C27.1597 11.893 27.9708 12.9637 28.4497 14.2164C28.9287 15.469 29.054 16.8475 28.8098 18.1773C28.5657 19.5071 27.963 20.7286 27.078 21.6874C26.193 22.6462 25.0654 23.2991 23.8379 23.5636C22.6103 23.8281 21.338 23.6924 20.1816 23.1735C19.0253 22.6546 18.037 21.7759 17.3417 20.6485C16.6463 19.5212 16.2752 18.1957 16.2752 16.8398C16.2752 15.0217 16.9419 13.2779 18.1287 11.9923C19.3154 10.7067 20.925 9.98438 22.6033 9.98438V9.98438Z" fill="white"/>
<path d="M24 35H22C19.0826 35 16.2847 36.3521 14.2218 38.7588C12.1589 41.1655 11 44.4297 11 47.8333C11 48.1428 11.1054 48.4395 11.2929 48.6583C11.4804 48.8771 11.7348 49 12 49H34C34.2652 49 34.5196 48.8771 34.7071 48.6583C34.8946 48.4395 35 48.1428 35 47.8333C35 46.148 34.7155 44.4792 34.1627 42.9222C33.6099 41.3652 32.7996 39.9505 31.7782 38.7588C30.7567 37.5671 29.5441 36.6218 28.2095 35.9769C26.8749 35.3319 25.4445 35 24 35ZM13.06 46.6667C13.3059 44.1007 14.3535 41.7305 16.0027 40.0088C17.6518 38.287 19.7869 37.3346 22 37.3333H24C26.2131 37.3346 28.3482 38.287 29.9973 40.0088C31.6465 41.7305 32.6941 44.1007 32.94 46.6667H13.06Z" fill="white" stroke="white" stroke-width="10"/>
<path d="M14.9861 17.2456C14.9861 12.9247 18.355 9.4248 22.5141 9.4248C26.6732 9.4248 30.0421 12.9247 30.0421 17.2456C30.0421 21.5665 26.6732 25.0665 22.5141 25.0665C18.355 25.0665 14.9861 21.5665 14.9861 17.2456Z" fill="white"/>
</g>
</g>
<defs>
<clipPath id="clip0_107_122">
<rect width="45" height="45" rx="22.5" fill="white"/>
</clipPath>
<clipPath id="clip1_107_122">
<rect width="40.5" height="43.875" fill="white" transform="translate(2.25 4.5)"/>
</clipPath>
</defs>
</svg>
