<svg width="25" height="25" viewBox="0 0 25 25" fill="none" xmlns="http://www.w3.org/2000/svg">
<g clip-path="url(#clip0_307_729)">
<path fill-rule="evenodd" clip-rule="evenodd" d="M20.2639 0.819444C19.7361 0.291667 19.0278 0 18.2917 0H2.77778C1.23611 0 0 1.25 0 2.77778V22.2222C0 23.75 1.25 25 2.77778 25H22.2222C23.75 25 25 23.75 25 22.2222V6.70833C25 5.97222 24.7083 5.26389 24.1806 4.75L20.2639 0.819444ZM12.5 22.2222C10.1944 22.2222 8.33333 20.3611 8.33333 18.0556C8.33333 15.75 10.1944 13.8889 12.5 13.8889C14.8056 13.8889 16.6667 15.75 16.6667 18.0556C16.6667 20.3611 14.8056 22.2222 12.5 22.2222ZM13.8889 8.33333H5.55556C4.02778 8.33333 2.77778 7.08333 2.77778 5.55556C2.77778 4.02778 4.02778 2.77778 5.55556 2.77778H13.8889C15.4167 2.77778 16.6667 4.02778 16.6667 5.55556C16.6667 7.08333 15.4167 8.33333 13.8889 8.33333Z" fill="white"/>
</g>
<defs>
<clipPath id="clip0_307_729">
<rect width="25" height="25" fill="white"/>
</clipPath>
</defs>
</svg>