<svg width="20" height="20" viewBox="0 0 20 20" fill="none" xmlns="http://www.w3.org/2000/svg">
<path d="M17.9751 16.6706L13.5431 12.2355C14.3977 11.1353 14.907 9.76055 14.907 8.26621C14.907 4.66985 11.9565 1.75 8.3318 1.75C4.70722 1.75 1.75 4.67296 1.75 8.26949C1.75 11.8658 4.70049 14.7857 8.32524 14.7857C9.78574 14.7857 11.1363 14.3106 12.2308 13.5091L16.6838 17.962C17.0503 18.3285 17.6086 18.3285 17.9751 17.962C18.3416 17.5955 18.3416 17.0372 17.9752 16.6707C17.9752 16.6707 17.9751 16.6707 17.9751 16.6706ZM3.5944 8.26949C3.5944 5.69543 5.71585 3.59768 8.32524 3.59768C10.9346 3.59768 13.0561 5.69543 13.0561 8.26949C13.0561 10.8435 10.9346 12.9413 8.32524 12.9413C5.71596 12.9413 3.5944 10.8404 3.5944 8.26949Z" fill="white" stroke="white" stroke-width="0.5"/>
</svg>