<svg width="25" height="25" viewBox="0 0 25 25" fill="none" xmlns="http://www.w3.org/2000/svg">
<path d="M12.5 2.08325C6.77081 2.08325 2.08331 6.77075 2.08331 12.4999C2.08331 18.2291 6.77081 22.9166 12.5 22.9166C18.2291 22.9166 22.9166 18.2291 22.9166 12.4999C22.9166 6.77075 18.2291 2.08325 12.5 2.08325ZM12.5 20.8333C7.90623 20.8333 4.16665 17.0937 4.16665 12.4999C4.16665 7.90617 7.90623 4.16659 12.5 4.16659C17.0937 4.16659 20.8333 7.90617 20.8333 12.4999C20.8333 17.0937 17.0937 20.8333 12.5 20.8333ZM13.0208 7.29159H11.4583V13.5416L16.875 16.8749L17.7083 15.5208L13.0208 12.7083V7.29159Z" fill="#005390"/>
</svg>
