<svg xmlns="http://www.w3.org/2000/svg" width="32" height="32" style=""><rect id="backgroundrect" width="100%" height="100%" x="0" y="0" fill="none" stroke="none"/><title/><g class="currentLayer" style=""><title>Layer 1</title><g id="about" class="" fill-opacity="1" fill="#0191ce"><path d="M16.081632651388645,16 A7,7 0 1 0 9.081632651388645,9 A7,7 0 0 0 16.081632651388645,16 zM16.081632651388645,4 a5,5 0 1 1 -5,5 A5,5 0 0 1 16.081632651388645,4 z" id="svg_1" fill="#0191ce"/><path d="M17.081632651388645,18 H15.081632651388645 A11,11 0 0 0 4.081632651388645,29 a1,1 0 0 0 1,1 H27.081632651388645 a1,1 0 0 0 1,-1 A11,11 0 0 0 17.081632651388645,18 zM6.141632651388645,28 A9,9 0 0 1 15.081632651388645,20 h2 a9,9 0 0 1 8.94,8 z" id="svg_2" fill="#0191ce"/></g><path fill="#0191ce" fill-opacity="1" stroke="none" stroke-opacity="1" stroke-width="1" stroke-dasharray="none" stroke-linejoin="miter" stroke-linecap="butt" stroke-dashoffset="" fill-rule="nonzero" opacity="1" marker-start="" marker-mid="" marker-end="" d="M10.063095524820081,9.295918545928307 C10.063095524820081,6.14449244334406 12.724927375841384,3.5918373002508224 16.011139537596076,3.5918373002508224 C19.29735169935077,3.5918373002508224 21.95918355037207,6.14449244334406 21.95918355037207,9.295918545928307 C21.95918355037207,12.447344648512553 19.29735169935077,14.999999791605795 16.011139537596076,14.999999791605795 C12.724927375841384,14.999999791605795 10.063095524820081,12.447344648512553 10.063095524820081,9.295918545928307 z" id="svg_3" class=""/><path fill="#2884e0" fill-opacity="1" stroke="none" stroke-opacity="1" stroke-width="1" stroke-dasharray="none" stroke-linejoin="miter" stroke-linecap="butt" stroke-dashoffset="" fill-rule="nonzero" opacity="1" marker-start="" marker-mid="" marker-end="" d="M14,7 C14,7 14.447513812154696,7 15,7 C15.552486187845304,7 16,7 16,7 C16,7 15.552486187845304,7 15,7 C14.447513812154696,7 14,7 14,7 Z" id="svg_5"/><rect fill="#0191ce" stroke-dashoffset="" fill-rule="nonzero" id="svg_4" x="5.959183692932129" y="23.081632614135742" width="20.12244987487793" height="5.081632614135742" style="color: rgb(40, 132, 224);" class="" fill-opacity="1"/><rect fill="#2884e0" stroke-dashoffset="" fill-rule="nonzero" id="svg_7" x="12" y="26" width="1" height="0" style="color: rgb(40, 132, 224);"/><rect fill="#0191ce" stroke-dashoffset="" fill-rule="nonzero" id="svg_9" x="11" y="20" width="11" height="5" style="color: rgb(40, 132, 224);" class="" fill-opacity="1"/><rect fill="#0191ce" stroke-dashoffset="" fill-rule="nonzero" id="svg_6" x="21" y="21" width="3" height="3" style="color: rgb(40, 132, 224);" class="" fill-opacity="1"/><rect fill="#0191ce" stroke-dashoffset="" fill-rule="nonzero" id="svg_10" x="8.081632614135742" y="20.653061240911484" width="3" height="4" style="color: rgb(40, 132, 224);" class="" fill-opacity="1"/></g></svg>