<svg xmlns="http://www.w3.org/2000/svg" width="32" height="32" style=""><rect id="backgroundrect" width="100%" height="100%" x="0" y="0" fill="none" stroke="none"/><title/><g class="currentLayer" style=""><title>Layer 1</title><g id="about" class="selected" fill-opacity="1" fill="#848484" stroke-opacity="1" stroke="#848484" stroke-width="1.1"><path d="M16.081632651388645,16 A7,7 0 1 0 9.081632651388645,9 A7,7 0 0 0 16.081632651388645,16 zM16.081632651388645,4 a5,5 0 1 1 -5,5 A5,5 0 0 1 16.081632651388645,4 z" id="svg_1" fill="#848484" stroke="#848484" stroke-width="1.1"/><path d="M17.081632651388645,18 H15.081632651388645 A11,11 0 0 0 4.081632651388645,29 a1,1 0 0 0 1,1 H27.081632651388645 a1,1 0 0 0 1,-1 A11,11 0 0 0 17.081632651388645,18 zM6.141632651388645,28 A9,9 0 0 1 15.081632651388645,20 h2 a9,9 0 0 1 8.94,8 z" id="svg_2" fill="#848484" stroke="#848484" stroke-width="1.1"/></g><path fill="#2884e0" fill-opacity="1" stroke="none" stroke-opacity="1" stroke-width="1" stroke-dasharray="none" stroke-linejoin="miter" stroke-linecap="butt" stroke-dashoffset="" fill-rule="nonzero" opacity="1" marker-start="" marker-mid="" marker-end="" d="M14,7 C14,7 14.447513812154696,7 15,7 C15.552486187845304,7 16,7 16,7 C16,7 15.552486187845304,7 15,7 C14.447513812154696,7 14,7 14,7 Z" id="svg_5"/><rect fill="#2884e0" stroke-dashoffset="" fill-rule="nonzero" id="svg_7" x="12" y="26" width="1" height="0" style="color: rgb(40, 132, 224);"/><path fill="#848484" stroke-dashoffset="" fill-rule="nonzero" marker-start="" marker-mid="" marker-end="" id="svg_3" d="M1,299.9940358891718 L1.3937356118418238,299.31211587064035 L2.0756556303710814,298.9183802588016 L2.863126952671594,298.9183802588016 L3.5450469712008568,299.31211587064035 L3.93878248442581,299.9940358891718 L3.93878248442581,300.78150721146994 L3.5450469712008568,301.4634272300014 L2.863126952671594,301.8571627432265 L2.0756556303710814,301.8571627432265 L1.3937356118418238,301.4634272300014 L1,300.78150721146994 L1,299.9940358891718 z" style="color: rgb(132, 132, 132);"/><path fill="#848484" stroke-dashoffset="" fill-rule="nonzero" marker-start="" marker-mid="" marker-end="" id="svg_6" d="M1.0816327296960107,1.0298793179565593 L1.0925697996578818,1.0109371478130789 L1.111511969801362,1.0000000778512084 L1.133386112464452,1.0000000778512084 L1.1523282826079313,1.0109371478130789 L1.1632653498304526,1.0298793179565593 L1.1632653498304526,1.0517534606196488 L1.1523282826079313,1.0706956307631288 L1.133386112464452,1.0816326979856494 L1.111511969801362,1.0816326979856494 L1.0925697996578818,1.0706956307631288 L1.0816327296960107,1.0517534606196488 L1.0816327296960107,1.0298793179565593 z" style="color: rgb(132, 132, 132);"/><path fill="#848484" stroke-dashoffset="" fill-rule="nonzero" marker-start="" marker-mid="" marker-end="" id="svg_9" d="M1,299.66538874092237 L1.273426331610716,299.1918352103012 L1.7469798622303143,298.918408878691 L2.2938325939353756,298.918408878691 L2.7673861245549904,299.1918352103012 L3.0408123876820605,299.66538874092237 L3.0408123876820605,300.21224147262495 L2.7673861245549904,300.6857950032452 L2.2938325939353756,300.95922126637265 L1.7469798622303143,300.95922126637265 L1.273426331610716,300.6857950032452 L1,300.21224147262495 L1,299.66538874092237 z" style="color: rgb(132, 132, 132);"/><path fill="#848484" stroke-dashoffset="" fill-rule="nonzero" marker-start="" marker-mid="" marker-end="" id="svg_12" d="M12.824932008070704,21.69485007016566 L12.824932008070704,21.69485007016566 C12.824932008070704,21.672307769745995 12.843206157032752,21.654033620783945 12.865748457452423,21.654033620783945 L12.865748457452423,21.654033620783945 C12.876573648232057,21.654033620783945 12.886955476493837,21.658333910401563 12.894610040006777,21.66598847939323 C12.9022646117378,21.673643051124248 12.906564906834141,21.68402487116795 12.906564906834141,21.69485007016566 L12.906564906834141,21.69485007016566 C12.906564906834141,21.717392367845974 12.888290757872086,21.73566651954738 12.865748457452423,21.73566651954738 L12.865748457452423,21.73566651954738 C12.843206159772112,21.73566651954738 12.824932008070704,21.717392367845974 12.824932008070704,21.69485007016566 zM12.845340232761565,21.69485007016566 L12.845340232761565,21.69485007016566 C12.845340232761565,21.706121217636138 12.854477312721306,21.715258294856525 12.865748457452423,21.715258294856525 C12.877019610401618,21.715258294856525 12.88615668214328,21.706121217636138 12.88615668214328,21.69485007016566 C12.88615668214328,21.683578922695183 12.877019604922895,21.674441845474803 12.865748457452423,21.674441845474803 L12.865748457452423,21.674441845474803 C12.854477312721306,21.674441845474803 12.845340232761565,21.683578925434542 12.845340232761565,21.69485007016566 z" style="color: rgb(132, 132, 132);"/><path fill="#848484" stroke-dashoffset="" fill-rule="nonzero" marker-start="" marker-mid="" marker-end="" id="svg_14" d="M25.08983035899855,22.859067064367125 L25.08983035899855,22.859067064367125 C25.08983035899855,22.836524806943434 25.10810447310547,22.818250692836514 25.130646730529165,22.818250692836514 L25.130646730529165,22.818250692836514 C25.141471900661408,22.818250692836514 25.151853709121447,22.822550974251996 25.15950825803449,22.83020552864374 C25.167162815165586,22.837860085774846 25.17146310205978,22.848241886016822 25.17146310205978,22.859067064367125 L25.17146310205978,22.859067064367125 C25.17146310205978,22.881609319051467 25.15318898795286,22.89988343589774 25.130646730529165,22.89988343589774 L25.130646730529165,22.89988343589774 C25.108104475844826,22.89988343589774 25.08983035899855,22.881609319051467 25.08983035899855,22.859067064367125 zM25.110238544763856,22.859067064367125 L25.110238544763856,22.859067064367125 C25.110238544763856,22.87033819033962 25.119375607296025,22.879475250132433 25.130646730529165,22.879475250132433 C25.141917861980364,22.879475250132433 25.151054916294473,22.87033819033962 25.151054916294473,22.859067064367125 C25.151054916294473,22.84779593839464 25.141917856501657,22.83865887860182 25.130646730529165,22.83865887860182 L25.130646730529165,22.83865887860182 C25.119375607296025,22.83865887860182 25.110238544763856,22.847795941133985 25.110238544763856,22.859067064367125 z" style="color: rgb(132, 132, 132);" class=""/><path fill="#848484" stroke-dashoffset="" fill-rule="nonzero" marker-start="" marker-mid="" marker-end="" id="svg_17" d="M25.25227920458639,23.306005432456782 L25.25227920458639,23.306005432456782 C25.25227920458639,23.260921057348902 25.288827319518937,23.224372942416373 25.333911694626792,23.224372942416373 L25.333911694626792,23.224372942416373 C25.355561967786024,23.224372942416373 25.37632552034924,23.232973478589862 25.39163457072475,23.248282539922748 C25.40694363753632,23.263591606734323 25.41554418466722,23.28435514286148 25.41554418466722,23.306005432456782 L25.41554418466722,23.306005432456782 C25.41554418466722,23.35108980208594 25.37899606973466,23.387637922497202 25.333911694626792,23.387637922497202 L25.333911694626792,23.387637922497202 C25.28882732499762,23.387637922497202 25.25227920458639,23.35108980208594 25.25227920458639,23.306005432456782 zM25.293095449606582,23.306005432456782 L25.293095449606582,23.306005432456782 C25.293095449606582,23.328547614532024 25.31136951803024,23.346821677476978 25.333911694626792,23.346821677476978 C25.356453887659416,23.346821677476978 25.37472793964701,23.328547614532024 25.37472793964701,23.306005432456782 C25.37472793964701,23.283463250381534 25.356453876702023,23.265189187436565 25.333911694626792,23.265189187436565 L25.333911694626792,23.265189187436565 C25.31136951803024,23.265189187436565 25.293095449606582,23.283463255860223 25.293095449606582,23.306005432456782 z" style="color: rgb(132, 132, 132);" class=""/><path fill="#848484" stroke-dashoffset="" fill-rule="nonzero" marker-start="" marker-mid="" marker-end="" id="svg_19" d="M18.2128903370483,21.19375990605357 L18.2128903370483,21.19375990605357 C18.2128903370483,21.148675369708208 18.24943858268969,21.112127124066824 18.294523119035055,21.112127124066824 L18.294523119035055,21.112127124066824 C18.316173469623223,21.112127124066824 18.336937096444167,21.120727690998855 18.352246201570196,21.136036807082306 C18.36755532313235,21.151345928644453 18.376155901021797,21.17210953902927 18.376155901021797,21.19375990605357 L18.376155901021797,21.19375990605357 C18.376155901021797,21.238844436920218 18.339607655380405,21.27539268804032 18.294523119035055,21.27539268804032 L18.294523119035055,21.27539268804032 C18.249438588168395,21.27539268804032 18.2128903370483,21.238844436920218 18.2128903370483,21.19375990605357 zM18.25370672804167,21.19375990605357 L18.25370672804167,21.19375990605357 C18.25370672804167,21.216302168747546 18.27198086181979,21.23457629704695 18.294523119035055,21.23457629704695 C18.317065392686438,21.23457629704695 18.335339510028426,21.216302168747546 18.335339510028426,21.19375990605357 C18.335339510028426,21.17121764335961 18.317065381729016,21.152943515060187 18.294523119035055,21.152943515060187 L18.294523119035055,21.152943515060187 C18.27198086181979,21.152943515060187 18.25370672804167,21.171217648838315 18.25370672804167,21.19375990605357 z" style="color: rgb(132, 132, 132);"/></g></svg>