<svg width="20" height="19" viewBox="0 0 25 25" fill="none" xmlns="http://www.w3.org/2000/svg">
<path d="M9.10711 11.9644C9.10711 13.8096 10.6547 15.3572 12.5 15.3572C14.3452 15.3572 15.8928 13.8096 15.8928 11.9644C15.8928 10.1191 14.3452 8.57152 12.5 8.57152C10.6547 8.57152 9.10711 10.1191 9.10711 11.9644ZM13.9285 19.2858C17.9166 18.393 24.1071 13.0953 24.1071 13.0953C24.1071 13.0953 19.5238 5.95247 13.3928 5.17866C13.0357 5.11914 11.8452 5.11914 11.6071 5.11914C5.65473 5.71438 0.892822 13.2739 0.892822 13.2739C0.892822 13.2739 6.07139 18.393 11.0119 19.1668C11.5476 19.4049 13.3333 19.4049 13.9285 19.2858ZM6.60711 12.3215C6.60711 9.22628 9.22616 6.72628 12.5 6.72628C15.7738 6.72628 18.3928 9.22628 18.3928 12.3215C18.3928 15.4168 15.7738 17.8572 12.5 17.8572C9.22616 17.8572 6.60711 15.3572 6.60711 12.3215Z" fill="white"/>
</svg>